<svg width="110" height="30" viewBox="0 0 110 30" fill="none" xmlns="http://www.w3.org/2000/svg">
<path d="M10.8271 2C15.702 2.00016 19.6533 5.9523 19.6533 10.8271C19.6532 15.7019 15.7019 19.6532 10.8271 19.6533C5.9523 19.6533 2.00015 15.702 2 10.8271C2 5.95221 5.95221 2 10.8271 2Z" stroke="black" stroke-width="4"/>
<path d="M16.2407 10.1211C21.1155 10.1212 25.0669 14.0734 25.0669 18.9482C25.0667 23.823 21.1154 27.7743 16.2407 27.7744C11.3659 27.7744 7.41373 23.8231 7.41357 18.9482C7.41357 14.0733 11.3658 10.1211 16.2407 10.1211Z" stroke="black" stroke-width="4"/>
<path d="M35.1538 21.5914H38.2192V7.38098H35.1538V21.5914Z" fill="black"/>
<path d="M39.5641 21.5914H42.4062V15.9884C42.4062 14.6689 43.2791 13.7148 44.5175 13.7148C45.6949 13.7148 46.4866 14.608 46.4866 15.8463V21.5914H49.3287V15.217C49.3287 12.8621 47.8265 11.1975 45.5122 11.1975C44.1115 11.1975 42.9746 11.7862 42.4062 12.7809V11.3599H39.5641V21.5914Z" fill="black"/>
<path d="M51.3869 8.33511V11.3599H49.4177V13.7148H51.3869V17.8764C51.3869 20.2516 52.9094 21.5914 55.2643 21.5914H56.9492V19.2162H55.65C54.7365 19.2162 54.2086 18.7493 54.2086 17.7546V13.7148H56.9492V11.3599H54.2086V8.33511H51.3869Z" fill="black"/>
<path d="M64.1209 18.12C63.8976 18.9929 63.1465 19.4396 62.0096 19.4396C60.5886 19.4396 59.6751 18.5463 59.4721 17.105H66.8209C66.8412 16.8817 66.8615 16.5772 66.8615 16.1915C66.8615 13.8569 65.4201 11.1975 61.8066 11.1975C58.3352 11.1975 56.7518 13.8569 56.7518 16.4554C56.7518 19.0335 58.5382 21.7538 62.0096 21.7538C64.5269 21.7538 66.4758 20.3328 66.8818 18.12H64.1209ZM61.8066 13.2682C63.1668 13.2682 63.9585 14.1817 64.0397 15.3185H59.5127C59.7563 13.8975 60.5277 13.2682 61.8066 13.2682Z" fill="black"/>
<path d="M73.9632 13.7148V11.3599H72.8061C71.5677 11.3599 70.7963 11.7862 70.2482 13.0652V11.3599H67.4061V21.5914H70.2482V16.6178C70.2482 14.8719 70.8775 13.7148 72.2783 13.7148H73.9632Z" fill="black"/>
<path d="M74.4239 21.5914H77.2457V6.91406H74.4239V21.5914Z" fill="black"/>
<path d="M83.3326 21.7538C86.4792 21.7538 88.7326 19.5208 88.7326 16.4757C88.7326 13.4306 86.4792 11.1975 83.3326 11.1975C80.186 11.1975 77.9326 13.4306 77.9326 16.4757C77.9326 19.5208 80.186 21.7538 83.3326 21.7538ZM83.3326 19.3177C81.81 19.3177 80.7747 18.1606 80.7747 16.4757C80.7747 14.7704 81.81 13.6133 83.3326 13.6133C84.8551 13.6133 85.8905 14.7704 85.8905 16.4757C85.8905 18.1606 84.8551 19.3177 83.3326 19.3177Z" fill="black"/>
<path d="M94.0113 21.7538C96.6707 21.7538 98.782 20.0486 99.0865 17.7749H96.2038C96.0008 18.6884 95.1685 19.3177 94.1332 19.3177C92.5903 19.3177 91.6768 18.1403 91.6768 16.4757C91.6768 14.811 92.57 13.6133 94.0925 13.6133C95.1279 13.6133 96.0008 14.2832 96.1632 15.1967H99.0053C98.8226 12.8215 96.691 11.1975 94.0113 11.1975C90.8445 11.1975 88.7332 13.4915 88.7332 16.4757C88.7332 19.4599 90.8445 21.7538 94.0113 21.7538Z" fill="black"/>
<path d="M106.551 21.5914H109.961L105.556 15.3794L109.636 11.3599H106.064L102.511 14.8516V6.91406H99.6689V21.5914H102.511V18.3839L103.648 17.2674L106.551 21.5914Z" fill="black"/>
</svg>
