<svg width="113" height="29" viewBox="0 0 113 29" fill="none" xmlns="http://www.w3.org/2000/svg">
<path d="M8.66413 1.06836C10.367 0.36307 12.1921 0 14.0352 0V7.0176C13.1136 7.0176 12.2011 7.19909 11.3497 7.55181C10.4982 7.90446 9.72462 8.42136 9.07299 9.07299C8.42136 9.72462 7.90446 10.4982 7.55182 11.3497C7.19909 12.2011 7.0176 13.1136 7.0176 14.0352H0C0 12.1921 0.36307 10.367 1.06836 8.66412C1.77373 6.9613 2.80752 5.41414 4.11079 4.11079C5.41414 2.80752 6.9613 1.77373 8.66413 1.06836Z" fill="black"/>
<path d="M0 14.0352C0 15.8783 0.36307 17.7032 1.06836 19.4061C1.77373 21.1089 2.80752 22.6561 4.11079 23.9594C5.41414 25.2627 6.9613 26.2965 8.66413 27.0018C10.367 27.7071 12.1921 28.0702 14.0352 28.0702C15.8783 28.0702 17.7034 27.7071 19.4063 27.0018C21.1091 26.2965 22.6562 25.2627 23.9596 23.9594C25.2629 22.6561 26.2967 21.1089 27.002 19.4061C27.7073 17.7032 28.0704 15.8781 28.0704 14.035H21.0528C21.0528 14.9566 20.8713 15.8691 20.5186 16.7205C20.1659 17.572 19.649 18.3456 18.9974 18.9972C18.3458 19.6488 17.5721 20.1657 16.7207 20.5184C15.8693 20.8711 14.9568 21.0526 14.0352 21.0526C13.1136 21.0526 12.2011 20.8711 11.3497 20.5184C10.4982 20.1657 9.72462 19.6488 9.07299 18.9972C8.42136 18.3456 7.90446 17.572 7.55182 16.7205C7.19909 15.8691 7.0176 14.9568 7.0176 14.0352H0Z" fill="black"/>
<path d="M14.0351 9.57031C11.5687 9.57031 9.56934 11.5697 9.56934 14.0361H18.5008C18.5008 11.5697 16.5014 9.57031 14.0351 9.57031Z" fill="black"/>
<path d="M14.0351 18.502C11.5687 18.502 9.56934 16.5024 9.56934 14.0361H18.5008C18.5008 16.5024 16.5014 18.502 14.0351 18.502Z" fill="black"/>
<path d="M42.6268 11.0994C42.5761 10.5877 42.3583 10.1902 41.9734 9.90686C41.5886 9.62352 41.0663 9.48185 40.4066 9.48185C39.9584 9.48185 39.5799 9.54529 39.2712 9.67215C38.9624 9.79479 38.7256 9.96606 38.5607 10.186C38.4 10.4059 38.3196 10.6554 38.3196 10.9345C38.3112 11.1671 38.3598 11.3701 38.4655 11.5435C38.5755 11.7168 38.7256 11.867 38.9159 11.9938C39.1062 12.1165 39.3261 12.2243 39.5756 12.3173C39.8251 12.4062 40.0916 12.4823 40.3749 12.5457L41.5421 12.8248C42.1088 12.9517 42.6289 13.1208 43.1026 13.3323C43.5762 13.5437 43.9864 13.8038 44.3332 14.1125C44.68 14.4212 44.9485 14.7849 45.1388 15.2036C45.3333 15.6222 45.4327 16.1022 45.4369 16.6435C45.4327 17.4386 45.2297 18.1279 44.828 18.7115C44.4304 19.2908 43.8553 19.7412 43.1026 20.0626C42.354 20.3798 41.4512 20.5384 40.3939 20.5384C39.3452 20.5384 38.4317 20.3777 37.6536 20.0563C36.8797 19.7349 36.275 19.2591 35.8394 18.629C35.408 17.9947 35.1818 17.2102 35.1606 16.2756H37.8185C37.8481 16.7112 37.9729 17.0749 38.1928 17.3667C38.4169 17.6542 38.7151 17.872 39.0872 18.02C39.4636 18.1638 39.8886 18.2357 40.3622 18.2357C40.8274 18.2357 41.2313 18.1681 41.5738 18.0327C41.9206 17.8974 42.1891 17.7092 42.3794 17.4682C42.5697 17.2271 42.6649 16.9501 42.6649 16.6372C42.6649 16.3454 42.5782 16.1001 42.4048 15.9014C42.2356 15.7026 41.9861 15.5334 41.6563 15.3939C41.3306 15.2543 40.931 15.1275 40.4574 15.0133L39.0428 14.6581C37.9475 14.3916 37.0827 13.9751 36.4484 13.4084C35.814 12.8417 35.499 12.0784 35.5032 11.1184C35.499 10.3319 35.7083 9.64467 36.1312 9.05685C36.5583 8.46903 37.144 8.01019 37.8883 7.68033C38.6326 7.35047 39.4784 7.18555 40.4257 7.18555C41.3899 7.18555 42.2314 7.35047 42.9503 7.68033C43.6735 8.01019 44.2359 8.46903 44.6377 9.05685C45.0394 9.64467 45.2466 10.3255 45.2593 11.0994H42.6268Z" fill="black"/>
<path d="M51.6741 20.5447C50.6718 20.5447 49.8091 20.3417 49.086 19.9357C48.367 19.5255 47.8131 18.9462 47.424 18.1977C47.0349 17.4449 46.8404 16.5547 46.8404 15.5271C46.8404 14.5248 47.0349 13.6452 47.424 12.8882C47.8131 12.1313 48.3607 11.5413 49.0669 11.1184C49.7774 10.6956 50.6105 10.4841 51.5662 10.4841C52.209 10.4841 52.8074 10.5877 53.3614 10.7949C53.9196 10.9979 54.4059 11.3045 54.8204 11.7147C55.239 12.1249 55.5647 12.6409 55.7973 13.2625C56.0298 13.8799 56.1461 14.6031 56.1461 15.4319V16.1741H47.9188V14.4995H53.6024C53.6024 14.1104 53.5179 13.7658 53.3487 13.4655C53.1796 13.1652 52.9449 12.9305 52.6446 12.7614C52.3486 12.588 52.0039 12.5013 51.6106 12.5013C51.2004 12.5013 50.8367 12.5965 50.5196 12.7868C50.2066 12.9728 49.9613 13.2244 49.7837 13.5416C49.6061 13.8546 49.5152 14.2034 49.511 14.5883V16.1805C49.511 16.6626 49.5998 17.0791 49.7774 17.4301C49.9592 17.7811 50.2151 18.0518 50.5449 18.2421C50.8748 18.4324 51.266 18.5275 51.7185 18.5275C52.0187 18.5275 52.2936 18.4852 52.5431 18.4007C52.7926 18.3161 53.0062 18.1892 53.1838 18.02C53.3614 17.8509 53.4967 17.6437 53.5898 17.3984L56.0891 17.5633C55.9622 18.1638 55.7021 18.6882 55.3088 19.1365C54.9198 19.5805 54.4165 19.9273 53.7991 20.1768C53.1859 20.4221 52.4776 20.5447 51.6741 20.5447Z" fill="black"/>
<path d="M62.2992 24.2112C61.4238 24.2112 60.6732 24.0907 60.0473 23.8496C59.4257 23.6128 58.9309 23.2893 58.563 22.8791C58.1951 22.4689 57.9561 22.0079 57.8462 21.4962L60.3455 21.16C60.4216 21.3546 60.5421 21.5364 60.707 21.7056C60.872 21.8747 61.0898 22.01 61.3604 22.1115C61.6353 22.2173 61.9694 22.2701 62.3627 22.2701C62.9505 22.2701 63.4347 22.1263 63.8153 21.8388C64.2001 21.5554 64.3925 21.0797 64.3925 20.4115V18.629H64.2784C64.16 18.8997 63.9823 19.1555 63.7455 19.3966C63.5087 19.6376 63.2042 19.8343 62.8321 19.9865C62.4599 20.1387 62.0159 20.2149 61.5 20.2149C60.7684 20.2149 60.1023 20.0457 59.5018 19.7074C58.9055 19.3648 58.4298 18.8426 58.0745 18.1406C57.7235 17.4343 57.548 16.542 57.548 15.4637C57.548 14.3599 57.7278 13.438 58.0872 12.6979C58.4467 11.9579 58.9245 11.4039 59.5208 11.036C60.1213 10.6681 60.7789 10.4841 61.4936 10.4841C62.0391 10.4841 62.4959 10.5771 62.8638 10.7632C63.2317 10.9451 63.5277 11.1734 63.7519 11.4483C63.9802 11.719 64.1557 11.9854 64.2784 12.2476H64.3799V10.611H67.0631V20.4496C67.0631 21.2784 66.8601 21.972 66.4541 22.5302C66.0482 23.0884 65.4857 23.5071 64.7668 23.7862C64.0521 24.0695 63.2296 24.2112 62.2992 24.2112ZM62.3563 18.185C62.7919 18.185 63.1598 18.0771 63.4601 17.8615C63.7645 17.6416 63.9971 17.3286 64.1578 16.9226C64.3228 16.5124 64.4052 16.0219 64.4052 15.451C64.4052 14.8801 64.3249 14.3853 64.1642 13.9666C64.0035 13.5437 63.7709 13.216 63.4664 12.9834C63.1619 12.7508 62.7919 12.6345 62.3563 12.6345C61.9123 12.6345 61.538 12.755 61.2335 12.9961C60.9291 13.2329 60.6986 13.5628 60.5421 13.9857C60.3856 14.4085 60.3074 14.897 60.3074 15.451C60.3074 16.0134 60.3856 16.4997 60.5421 16.91C60.7028 17.3159 60.9333 17.631 61.2335 17.8551C61.538 18.075 61.9123 18.185 62.3563 18.185Z" fill="black"/>
<path d="M69.2135 20.3544V10.611H71.7889V12.33H71.9031C72.1061 11.7591 72.4444 11.3087 72.918 10.9789C73.3917 10.649 73.9584 10.4841 74.6181 10.4841C75.2862 10.4841 75.855 10.6511 76.3244 10.9852C76.7939 11.3151 77.1068 11.7634 77.2633 12.33H77.3648C77.5635 11.7718 77.923 11.3257 78.4431 10.9916C78.9675 10.6533 79.5871 10.4841 80.3017 10.4841C81.211 10.4841 81.9489 10.7738 82.5156 11.3532C83.0865 11.9283 83.3719 12.7445 83.3719 13.8017V20.3544H80.676V14.3345C80.676 13.7932 80.5322 13.3873 80.2447 13.1166C79.9571 12.846 79.5976 12.7106 79.1663 12.7106C78.6757 12.7106 78.293 12.8671 78.0181 13.18C77.7432 13.4888 77.6058 13.8968 77.6058 14.4043V20.3544H74.986V14.2775C74.986 13.7996 74.8486 13.419 74.5737 13.1356C74.303 12.8523 73.9457 12.7106 73.5016 12.7106C73.2014 12.7106 72.9307 12.7868 72.6897 12.939C72.4529 13.087 72.2647 13.2963 72.1251 13.567C71.9856 13.8334 71.9158 14.1464 71.9158 14.5058V20.3544H69.2135Z" fill="black"/>
<path d="M89.9469 20.5447C88.9446 20.5447 88.0819 20.3417 87.3588 19.9357C86.6398 19.5255 86.0859 18.9462 85.6968 18.1977C85.3077 17.4449 85.1132 16.5547 85.1132 15.5271C85.1132 14.5248 85.3077 13.6452 85.6968 12.8882C86.0859 12.1313 86.6335 11.5413 87.3397 11.1184C88.0502 10.6956 88.8833 10.4841 89.839 10.4841C90.4818 10.4841 91.0802 10.5877 91.6342 10.7949C92.1924 10.9979 92.6788 11.3045 93.0932 11.7147C93.5119 12.1249 93.8375 12.6409 94.0701 13.2625C94.3027 13.8799 94.4189 14.6031 94.4189 15.4319V16.1741H86.1916V14.4995H91.8753C91.8753 14.1104 91.7907 13.7658 91.6215 13.4655C91.4524 13.1652 91.2177 12.9305 90.9174 12.7614C90.6214 12.588 90.2767 12.5013 89.8834 12.5013C89.4732 12.5013 89.1095 12.5965 88.7924 12.7868C88.4794 12.9728 88.2341 13.2244 88.0565 13.5416C87.8789 13.8546 87.788 14.2034 87.7838 14.5883V16.1805C87.7838 16.6626 87.8726 17.0791 88.0502 17.4301C88.232 17.7811 88.4879 18.0518 88.8177 18.2421C89.1476 18.4324 89.5388 18.5275 89.9913 18.5275C90.2915 18.5275 90.5664 18.4852 90.8159 18.4007C91.0654 18.3161 91.279 18.1892 91.4566 18.02C91.6342 17.8509 91.7695 17.6437 91.8626 17.3984L94.3619 17.5633C94.235 18.1638 93.9749 18.6882 93.5816 19.1365C93.1926 19.5805 92.6893 19.9273 92.0719 20.1768C91.4587 20.4221 90.7504 20.5447 89.9469 20.5447Z" fill="black"/>
<path d="M98.8847 14.7215V20.3544H96.1824V10.611H98.7578V12.33H98.872C99.0877 11.7634 99.4493 11.3151 99.9567 10.9852C100.464 10.6511 101.079 10.4841 101.803 10.4841C102.479 10.4841 103.069 10.6321 103.572 10.9281C104.076 11.2242 104.467 11.6471 104.746 12.1968C105.025 12.7424 105.165 13.3936 105.165 14.1506V20.3544H102.462V14.6327C102.467 14.0364 102.314 13.5712 102.006 13.2371C101.697 12.8988 101.272 12.7297 100.731 12.7297C100.367 12.7297 100.046 12.8079 99.7664 12.9644C99.4915 13.1208 99.2759 13.3492 99.1194 13.6495C98.9672 13.9455 98.8889 14.3028 98.8847 14.7215Z" fill="black"/>
<path d="M112.477 10.611V12.6409H106.609V10.611H112.477ZM107.941 8.27661H110.644V17.3603C110.644 17.6098 110.682 17.8044 110.758 17.9439C110.834 18.0793 110.94 18.1744 111.075 18.2294C111.215 18.2844 111.375 18.3118 111.557 18.3118C111.684 18.3118 111.811 18.3013 111.938 18.2801C112.065 18.2548 112.162 18.2357 112.23 18.223L112.655 20.2339C112.519 20.2762 112.329 20.3248 112.084 20.3798C111.838 20.439 111.54 20.4749 111.189 20.4876C110.538 20.513 109.967 20.4263 109.477 20.2275C108.99 20.0288 108.612 19.7201 108.341 19.3014C108.07 18.8827 107.937 18.3541 107.941 17.7156V8.27661Z" fill="black"/>
</svg>
