<svg width="114" height="33" viewBox="0 0 114 33" fill="none" xmlns="http://www.w3.org/2000/svg">
<path d="M0 12.9922H6.49608V19.4883H0V12.9922Z" fill="white"/>
<path d="M19.4883 19.4883H12.9922V12.9922L19.4883 12.9922V19.4883Z" fill="white"/>
<path d="M6.49608 12.9922L12.9922 6.49609L12.9922 12.9922L6.49608 19.4883V12.9922Z" fill="white"/>
<path d="M12.9922 19.4883L6.49611 25.9844L6.49608 19.4883L12.9922 12.9922V19.4883Z" fill="white"/>
<path d="M0 12.9922L12.9922 0L12.9922 6.49609L6.49608 12.9922H0Z" fill="white"/>
<path d="M19.4883 19.4883L6.4959 32.4803L6.49611 25.9844L12.9922 19.4883H19.4883Z" fill="white"/>
<path d="M33.6361 23.1974C32.613 23.1974 31.6214 23.0521 30.6614 22.7616C29.7141 22.4711 28.9625 22.0858 28.4067 21.6058L29.2593 19.6922C29.8025 20.1216 30.4656 20.4753 31.2488 20.7532C32.0446 21.0185 32.8403 21.1511 33.6361 21.1511C34.6213 21.1511 35.3539 20.9932 35.8339 20.6774C36.3266 20.3616 36.5729 19.9448 36.5729 19.4269C36.5729 19.048 36.4339 18.7385 36.156 18.4985C35.8908 18.2459 35.5497 18.0501 35.1329 17.9112C34.7161 17.7722 34.1477 17.6143 33.4277 17.4375C32.4172 17.1975 31.5961 16.9575 30.9646 16.7175C30.3456 16.4775 29.8088 16.1049 29.3541 15.5996C28.912 15.0818 28.6909 14.387 28.6909 13.5155C28.6909 12.7829 28.8867 12.1197 29.2783 11.5261C29.6825 10.9197 30.2825 10.4398 31.0783 10.0861C31.8867 9.73241 32.8719 9.55557 34.034 9.55557C34.8424 9.55557 35.6382 9.65662 36.4213 9.85872C37.2044 10.0608 37.8802 10.3513 38.4486 10.7303L37.6718 12.6439C37.0908 12.3029 36.4844 12.0439 35.8529 11.8671C35.2213 11.6903 34.6087 11.6018 34.015 11.6018C33.0424 11.6018 32.3161 11.766 31.8361 12.0945C31.3688 12.4229 31.1351 12.8587 31.1351 13.4018C31.1351 13.7807 31.2677 14.0902 31.533 14.3302C31.8109 14.5702 32.1582 14.7597 32.5751 14.8986C32.9919 15.0376 33.5603 15.1954 34.2803 15.3723C35.2655 15.5996 36.0739 15.8396 36.7055 16.0923C37.3371 16.3323 37.8739 16.7049 38.316 17.2101C38.7707 17.7154 38.9981 18.3975 38.9981 19.2564C38.9981 19.989 38.796 20.6522 38.3918 21.2458C38.0002 21.8395 37.4002 22.3132 36.5918 22.6669C35.7834 23.0205 34.7982 23.1974 33.6361 23.1974Z" fill="white"/>
<path d="M41.2131 12.8902H43.5815V23.0079H41.2131V12.8902ZM42.4067 11.2229C41.9773 11.2229 41.6173 11.0903 41.3268 10.825C41.0363 10.5471 40.891 10.2061 40.891 9.80188C40.891 9.39768 41.0363 9.06295 41.3268 8.79769C41.6173 8.5198 41.9773 8.38086 42.4067 8.38086C42.8362 8.38086 43.1962 8.51349 43.4867 8.77874C43.7772 9.03137 43.9225 9.35347 43.9225 9.74504C43.9225 10.1619 43.7772 10.5155 43.4867 10.8061C43.2088 11.084 42.8488 11.2229 42.4067 11.2229Z" fill="white"/>
<path d="M49.8162 23.1405C48.9951 23.1405 48.1931 23.0332 47.4099 22.8184C46.6268 22.6037 46.0015 22.3321 45.5342 22.0037L46.4436 20.2038C46.8984 20.5069 47.4415 20.7532 48.0731 20.9427C48.7173 21.1195 49.3488 21.2079 49.9678 21.2079C51.3825 21.2079 52.0898 20.8353 52.0898 20.0901C52.0898 19.7364 51.9067 19.4901 51.5404 19.3511C51.1867 19.2122 50.612 19.0796 49.8162 18.9533C48.9825 18.8269 48.3004 18.6817 47.7699 18.5175C47.252 18.3533 46.7973 18.0691 46.4057 17.6649C46.0268 17.248 45.8373 16.6733 45.8373 15.9407C45.8373 14.9807 46.2352 14.2165 47.031 13.6481C47.8394 13.0671 48.9257 12.7766 50.2899 12.7766C50.9846 12.7766 51.6793 12.8587 52.374 13.0229C53.0687 13.1744 53.6371 13.3829 54.0792 13.6481L53.1698 15.4481C52.3109 14.9428 51.3446 14.6902 50.2709 14.6902C49.5762 14.6902 49.0457 14.7976 48.6794 15.0123C48.3257 15.2144 48.1488 15.486 48.1488 15.827C48.1488 16.2059 48.3383 16.4775 48.7173 16.6417C49.1088 16.7933 49.7088 16.9386 50.5172 17.0775C51.3256 17.2038 51.9888 17.3491 52.5066 17.5133C53.0245 17.6775 53.4666 17.9554 53.8329 18.347C54.2119 18.7385 54.4013 19.2943 54.4013 20.0143C54.4013 20.9616 53.9908 21.7195 53.1698 22.2879C52.3488 22.8563 51.2309 23.1405 49.8162 23.1405Z" fill="white"/>
<path d="M65.7294 12.8902L60.9926 23.8226C60.5506 24.9215 60.0137 25.6921 59.3822 26.1341C58.7506 26.5889 57.9864 26.8162 57.0896 26.8162C56.5843 26.8162 56.0854 26.7341 55.5928 26.5699C55.1002 26.4057 54.696 26.1784 54.3802 25.8878L55.3275 24.1447C55.5549 24.3594 55.8201 24.53 56.1233 24.6563C56.4391 24.7826 56.7549 24.8458 57.0706 24.8458C57.4875 24.8458 57.8285 24.7384 58.0938 24.5237C58.3717 24.3089 58.6243 23.9489 58.8516 23.4437L59.0222 23.0458L54.6075 12.8902H57.0706L60.2537 20.3743L63.4558 12.8902H65.7294Z" fill="white"/>
<path d="M72.8179 12.7766C73.8031 12.7766 74.681 12.9913 75.4515 13.4207C76.2347 13.8502 76.8473 14.4565 77.2894 15.2397C77.7315 16.0228 77.9525 16.9259 77.9525 17.9491C77.9525 18.9722 77.7315 19.8817 77.2894 20.6774C76.8473 21.4606 76.2347 22.0669 75.4515 22.4963C74.681 22.9258 73.8031 23.1405 72.8179 23.1405C71.4537 23.1405 70.3737 22.6858 69.578 21.7764V26.6836H67.2096V12.8902H69.4643V14.2165C69.8559 13.7365 70.3359 13.3765 70.9043 13.1365C71.4853 12.8965 72.1232 12.7766 72.8179 12.7766ZM72.5526 21.1132C73.4242 21.1132 74.1379 20.8227 74.6936 20.2416C75.2621 19.6606 75.5463 18.8964 75.5463 17.9491C75.5463 17.0017 75.2621 16.2375 74.6936 15.6565C74.1379 15.0754 73.4242 14.7849 72.5526 14.7849C71.9842 14.7849 71.4727 14.9176 71.0179 15.1828C70.5632 15.4354 70.2032 15.8017 69.938 16.2817C69.6727 16.7617 69.5401 17.3175 69.5401 17.9491C69.5401 18.5806 69.6727 19.1364 69.938 19.6164C70.2032 20.0964 70.5632 20.469 71.0179 20.7343C71.4727 20.9869 71.9842 21.1132 72.5526 21.1132Z" fill="white"/>
<path d="M85.9395 12.7766C87.2153 12.7766 88.2384 13.1492 89.0089 13.8944C89.7794 14.6397 90.1647 15.7449 90.1647 17.2101V23.0079H87.7963V17.5133C87.7963 16.6291 87.5879 15.966 87.1711 15.5239C86.7543 15.0691 86.1606 14.8418 85.3901 14.8418C84.5185 14.8418 83.8301 15.107 83.3249 15.6375C82.8196 16.1554 82.567 16.907 82.567 17.8922V23.0079H80.1986V8.94927H82.567V14.0649C82.9586 13.6481 83.4386 13.3323 84.007 13.1176C84.588 12.8902 85.2322 12.7766 85.9395 12.7766Z" fill="white"/>
<path d="M102.965 12.8902V23.0079H100.71V21.7195C100.331 22.1742 99.8574 22.5279 99.289 22.7805C98.7206 23.0205 98.108 23.1405 97.4511 23.1405C96.0996 23.1405 95.0322 22.7679 94.2491 22.0227C93.4786 21.2648 93.0933 20.1469 93.0933 18.669V12.8902H95.4617V18.347C95.4617 19.2564 95.6638 19.9385 96.068 20.3932C96.4848 20.8353 97.0722 21.0564 97.8301 21.0564C98.6764 21.0564 99.3458 20.7974 99.8384 20.2795C100.344 19.749 100.596 18.9911 100.596 18.0059V12.8902H102.965Z" fill="white"/>
<path d="M109.192 23.1405C108.371 23.1405 107.569 23.0332 106.786 22.8184C106.002 22.6037 105.377 22.3321 104.91 22.0037L105.819 20.2038C106.274 20.5069 106.817 20.7532 107.449 20.9427C108.093 21.1195 108.725 21.2079 109.343 21.2079C110.758 21.2079 111.465 20.8353 111.465 20.0901C111.465 19.7364 111.282 19.4901 110.916 19.3511C110.562 19.2122 109.988 19.0796 109.192 18.9533C108.358 18.8269 107.676 18.6817 107.146 18.5175C106.628 18.3533 106.173 18.0691 105.781 17.6649C105.402 17.248 105.213 16.6733 105.213 15.9407C105.213 14.9807 105.611 14.2165 106.407 13.6481C107.215 13.0671 108.301 12.7766 109.666 12.7766C110.36 12.7766 111.055 12.8587 111.75 13.0229C112.444 13.1744 113.013 13.3829 113.455 13.6481L112.545 15.4481C111.687 14.9428 110.72 14.6902 109.647 14.6902C108.952 14.6902 108.421 14.7976 108.055 15.0123C107.701 15.2144 107.525 15.486 107.525 15.827C107.525 16.2059 107.714 16.4775 108.093 16.6417C108.485 16.7933 109.085 16.9386 109.893 17.0775C110.701 17.2038 111.364 17.3491 111.882 17.5133C112.4 17.6775 112.842 17.9554 113.209 18.347C113.588 18.7385 113.777 19.2943 113.777 20.0143C113.777 20.9616 113.367 21.7195 112.545 22.2879C111.724 22.8563 110.607 23.1405 109.192 23.1405Z" fill="white"/>
</svg>
