<svg width="123" height="28" viewBox="0 0 123 28" fill="none" xmlns="http://www.w3.org/2000/svg">
<path d="M7.31677 1.48096L10.5004 13.3625V0.299676C10.7529 0.240767 11.008 0.188887 11.2657 0.144253V13.3638L14.8465 0C15.1045 0.0233614 15.3605 0.0539288 15.6142 0.0914995L12.0045 13.5629L19.1796 1.13535C19.4133 1.2405 19.6436 1.35207 19.8701 1.46982L12.6683 13.9437L22.9498 3.66223C23.1351 3.83752 23.3156 4.01797 23.4909 4.20335L13.2078 14.4864L25.6832 7.2837C25.801 7.51023 25.9125 7.74049 26.0176 7.97425L13.5931 15.1475L27.0609 11.5389C27.0984 11.7926 27.129 12.0485 27.1523 12.3066L13.7887 15.8873L27.0079 15.8873C26.9632 16.145 26.9113 16.4001 26.8524 16.6526L13.7867 16.6526L25.6706 19.8369C25.5485 20.0706 25.4199 20.3003 25.2849 20.5258L13.592 17.3926L23.3583 23.0312C23.1734 23.2213 22.983 23.4061 22.7874 23.5852L13.2102 18.0558L20.4571 25.3027C20.2279 25.4366 19.9944 25.564 19.7569 25.6847L12.6684 18.5962L17.3128 26.6406C17.0585 26.7125 16.8012 26.7772 16.5411 26.8344L12.005 18.9776L14.192 27.1398C13.9971 27.1481 13.8011 27.1523 13.6041 27.1523C13.5369 27.1523 13.4698 27.1518 13.4028 27.1508L11.2657 19.175V26.952C11.008 26.9074 10.7529 26.8555 10.5004 26.7966V19.1763L8.61609 26.2087C8.37574 26.114 8.13874 26.0126 7.90532 25.9047L9.76098 18.9793L6.27752 25.0128C6.06186 24.8747 5.85036 24.7307 5.64324 24.581L9.09931 18.5949L4.25932 23.4349C4.07394 23.2596 3.89349 23.0792 3.71819 22.8938L8.55666 18.0553L2.57229 21.5104C2.42254 21.3033 2.27849 21.0918 2.14036 20.8762L8.17673 17.3911L1.24787 19.2477C1.14002 19.0142 1.0386 18.7773 0.943814 18.5369L7.97623 16.6526H0.355815C0.296891 16.4001 0.244996 16.145 0.200348 15.8873L7.97417 15.8873L0.00148263 13.7511C0.000495353 13.6835 0 13.6159 0 13.5482C0 13.3517 0.0041644 13.1562 0.0124097 12.9618L8.17562 15.1491L0.317608 10.6123C0.374825 10.3522 0.439487 10.0948 0.511358 9.84052L8.55908 14.4869L1.4676 7.3954C1.58825 7.15789 1.71566 6.9244 1.84959 6.69518L9.0994 13.945L3.56784 4.36406C3.74696 4.16843 3.93172 3.97806 4.12187 3.7932L9.76144 13.5612L6.62786 1.86653C6.85334 1.73158 7.08306 1.60297 7.31677 1.48096Z" fill="white"/>
<path d="M35.7715 19.674H38.7322V14.5316H44.6364V11.9172H38.7322V9.71824H45.0173V7.12109H35.7715V19.674Z" fill="white"/>
<path d="M50.0494 12.2981C51.1749 12.2981 52.0752 12.9907 52.0752 14.9818C52.0752 16.9383 51.2095 17.6828 50.0494 17.6828C48.8894 17.6828 48.0237 16.9383 48.0237 14.9818C48.0237 12.9907 48.924 12.2981 50.0494 12.2981ZM50.0494 10.0818C47.4696 10.0818 45.1149 11.6055 45.1149 14.9818C45.1149 18.3581 47.4696 19.8991 50.0494 19.8991C52.6293 19.8991 54.984 18.3581 54.984 14.9818C54.984 11.6055 52.6293 10.0818 50.0494 10.0818Z" fill="white"/>
<path d="M60.4698 10.0818C57.6476 10.0818 55.7084 12.0037 55.7084 14.9645C55.7084 17.9252 57.4052 19.8991 60.4698 19.8991C62.3398 19.8991 64.5733 19.016 65.214 16.2457H62.5476C62.3398 17.1288 61.6992 17.6828 60.643 17.6828C59.6214 17.6828 58.6172 17.0076 58.6172 14.9818C58.6172 12.9907 59.6214 12.2981 60.643 12.2981C61.4914 12.2981 62.1666 12.679 62.4264 13.7698H65.0928C64.5387 10.9649 62.409 10.0818 60.4698 10.0818Z" fill="white"/>
<path d="M71.9268 13.8564C68.3081 14.1334 65.7282 14.8779 65.7282 17.1634C65.7282 18.8602 67.1827 19.8991 68.9487 19.8991C70.2819 19.8991 71.39 19.5355 72.0826 18.5486L72.1172 19.674H74.9222C74.7836 19.0853 74.7144 17.9945 74.7144 16.9729V16.0033L74.749 13.9776C74.801 11.1553 73.2773 10.0645 70.5936 10.0645C67.8233 10.0645 66.1611 11.6228 66.0226 13.3716H68.689C68.8102 12.4712 69.4335 12.0037 70.3512 12.0037C71.39 12.0037 71.9268 12.3847 71.9268 13.4928V13.8564ZM71.996 15.7609C71.996 17.4751 71.1303 17.9599 69.9876 17.9599C69.2431 17.9599 68.6717 17.5616 68.6717 16.9556C68.6717 15.9514 70.0049 15.7263 71.996 15.5359V15.7609Z" fill="white"/>
<path d="M79.0721 7.12109H76.2152V19.674H79.0721V7.12109Z" fill="white"/>
<path d="M80.8936 7.12109V19.674H83.8543V15.3281H85.7243C88.9794 15.3281 91.4207 14.5143 91.4207 11.2073C91.4207 7.91755 88.9794 7.12109 85.7243 7.12109H80.8936ZM85.8108 9.61436C87.196 9.61436 88.2868 9.89139 88.2868 11.2073C88.2868 12.5232 87.196 12.8348 85.8108 12.8348H83.8543V9.61436H85.8108Z" fill="white"/>
<path d="M96.4397 12.2981C97.5651 12.2981 98.4655 12.9907 98.4655 14.9818C98.4655 16.9383 97.5997 17.6828 96.4397 17.6828C95.2796 17.6828 94.4139 16.9383 94.4139 14.9818C94.4139 12.9907 95.3143 12.2981 96.4397 12.2981ZM96.4397 10.0818C93.8598 10.0818 91.5051 11.6055 91.5051 14.9818C91.5051 18.3581 93.8598 19.8991 96.4397 19.8991C99.0195 19.8991 101.374 18.3581 101.374 14.9818C101.374 11.6055 99.0195 10.0818 96.4397 10.0818Z" fill="white"/>
<path d="M102.517 10.3589V19.674H105.392V10.3589H102.517ZM102.517 7.12109V9.40658H105.374V7.12109H102.517Z" fill="white"/>
<path d="M109.948 10.3589H107.092V19.674H109.948V14.8952C109.948 13.1638 110.45 12.3673 111.68 12.3673C113.065 12.3673 113.117 13.4581 113.117 14.7913V19.674H115.974V14.0815C115.974 11.5536 115.229 10.1511 112.84 10.1511C111.368 10.1511 110.364 10.8956 109.948 11.5882V10.3589Z" fill="white"/>
<path d="M117.949 10.3589H116.478V12.3847H117.949V17.0595C117.949 19.2238 118.728 19.674 121.031 19.674H122.849V17.6136H122.035C121.083 17.6136 120.806 17.4404 120.806 16.5574V12.3847H122.849V10.3589H120.806V7.81367H117.949V10.3589Z" fill="white"/>
</svg>
