<svg width="128" height="31" viewBox="0 0 128 31" fill="none" xmlns="http://www.w3.org/2000/svg">
<path d="M18.9514 0.795939L15.981 0L13.4777 9.34226L11.2178 0.908005L8.24725 1.70395L10.689 10.8165L4.60716 4.73472L2.43261 6.90926L9.10364 13.5803L0.795938 11.3543L0 14.3247L9.0772 16.757C8.97328 16.3087 8.9183 15.8417 8.9183 15.3618C8.9183 11.9649 11.672 9.21122 15.0688 9.21122C18.4657 9.21122 21.2194 11.9649 21.2194 15.3618C21.2194 15.8386 21.1651 16.3028 21.0625 16.7484L29.312 18.9588L30.1078 15.9883L20.9946 13.5464L29.3028 11.3202L28.5068 8.34977L19.3939 10.7915L25.4758 4.70975L23.3012 2.53521L16.7227 9.11372L18.9514 0.795939Z" fill="black"/>
<path d="M21.0538 16.7829C20.7991 17.8596 20.2614 18.8269 19.5237 19.6019L25.5001 25.5783L27.6746 23.4038L21.0538 16.7829Z" fill="black"/>
<path d="M19.4634 19.6644C18.7167 20.427 17.7731 20.996 16.715 21.2893L18.8897 29.4054L21.8602 28.6094L19.4634 19.6644Z" fill="black"/>
<path d="M16.6041 21.319C16.1132 21.4452 15.5986 21.5123 15.0683 21.5123C14.5002 21.5123 13.9501 21.4352 13.4278 21.2911L11.2512 29.4145L14.2216 30.2104L16.6041 21.319Z" fill="black"/>
<path d="M13.3228 21.2611C12.2808 20.9533 11.3541 20.3769 10.6227 19.6122L4.63156 25.6033L6.8061 27.7778L13.3228 21.2611Z" fill="black"/>
<path d="M10.5733 19.5592C9.85443 18.7896 9.33081 17.8352 9.08157 16.7752L0.805139 18.9928L1.60107 21.9633L10.5733 19.5592Z" fill="black"/>
<path d="M47.9824 6.97864V17.6829L41.1207 6.97864H38.376V21.7577H41.1207V11.1379L47.9824 21.7577H50.7271V6.97864H47.9824Z" fill="black"/>
<path d="M51.9638 9.74444H54.793V6.97864H51.9638V9.74444ZM52.0061 21.7577V11.2012H54.7508V21.7577H52.0061Z" fill="black"/>
<path d="M66.56 16.4795C66.56 12.8269 63.9631 11.0957 61.2184 11.0746C58.4526 11.0534 55.898 12.8269 55.898 16.4795C55.898 20.132 58.4526 21.9055 61.2184 21.8844C63.7309 21.8633 65.4621 20.7021 66.2644 18.7808L64.132 17.8941C63.4775 19.2031 62.443 19.6675 61.2184 19.6887C60.1628 19.7098 58.9593 19.2031 58.706 17.324H66.4967C66.5389 17.0495 66.56 16.7751 66.56 16.4795ZM61.2184 13.2492C62.2741 13.2703 63.3508 13.8404 63.6887 15.3605H58.7482C59.1071 13.8193 60.1839 13.2281 61.2184 13.2492Z" fill="black"/>
<path d="M72.9032 13.1647V11.0746H71.1719V8.24542L68.4272 9.08994V11.0746H66.6959V13.1647H68.4272V18.633C68.4272 20.7021 68.5961 21.7577 71.8053 21.7577H72.5442V19.3509H71.8053C71.2986 19.3509 71.1719 19.2664 71.1719 18.633V13.1647H72.9032Z" fill="black"/>
<path d="M76.9816 19.4564L82.8088 13.5026V11.2012H74.068V13.5026H79.7263L73.8991 19.4564V21.7577H82.8721V19.4564H76.9816Z" fill="black"/>
<path d="M83.8562 18.7808L86.622 18.3585C86.812 19.4142 88.0577 19.8153 88.8177 19.8153C89.5989 19.8153 90.9501 19.6464 90.9501 18.3797C90.9501 15.9094 84.1729 18.9919 84.1729 14.2626C84.1729 11.2224 87.6987 11.0534 88.8177 11.0534C89.8734 11.0534 92.9348 11.2224 93.5682 13.6715L90.9501 14.2204C90.7179 13.1014 89.5356 12.8903 88.9022 12.8903C88.2688 12.8903 86.9176 13.0381 86.9176 14.2626C86.9176 16.7117 93.6948 13.587 93.6948 18.3797C93.6948 21.6099 89.979 21.8844 88.8177 21.8844C87.7621 21.8844 84.4051 21.6099 83.8562 18.7808Z" fill="black"/>
<path d="M97.2605 16.4795C97.2605 19.0553 98.6328 19.8365 100.068 19.8153C101.356 19.7942 102.243 19.2664 102.771 17.7885L105.03 18.8864C104.207 21.0399 102.201 21.8633 100.068 21.8844C97.3027 21.9055 94.5158 20.132 94.5158 16.4795C94.5158 12.8269 97.3027 11.0534 100.068 11.0746C102.201 11.0957 104.207 11.9191 105.03 14.0726L102.771 15.1705C102.243 13.6926 101.356 13.1647 100.068 13.1436C98.6328 13.1225 97.2605 13.9037 97.2605 16.4795Z" fill="black"/>
<path d="M112.398 11.0323C110.984 11.0323 109.696 11.7713 108.872 13.3548V6.97864H106.128V21.7577H108.872V18.0207C108.872 13.1859 110.878 12.7847 111.617 12.7847C112.799 12.7847 112.968 14.0093 112.968 15.8039V21.7577H115.713V15.8039C115.713 13.5659 115.354 11.0323 112.398 11.0323Z" fill="black"/>
<path d="M127.301 16.4795C127.301 12.8269 124.704 11.0957 121.96 11.0746C119.194 11.0534 116.639 12.8269 116.639 16.4795C116.639 20.132 119.194 21.9055 121.96 21.8844C124.472 21.8633 126.203 20.7021 127.006 18.7808L124.873 17.8941C124.219 19.2031 123.184 19.6675 121.96 19.6887C120.904 19.7098 119.7 19.2031 119.447 17.324H127.238C127.28 17.0495 127.301 16.7751 127.301 16.4795ZM121.96 13.2492C123.015 13.2703 124.092 13.8404 124.43 15.3605H119.489C119.848 13.8193 120.925 13.2281 121.96 13.2492Z" fill="black"/>
</svg>
