<svg width="121" height="24" viewBox="0 0 121 24" fill="none" xmlns="http://www.w3.org/2000/svg">
<path d="M16.323 0H7.27997L0 7.27995V16.323L7.27997 23.603H16.323L23.603 16.323V7.27995L16.323 0ZM8.5312 16.4368L3.86749 11.773L8.5312 7.10933C10.2943 5.34622 13.1949 5.34622 14.958 7.10933L19.6218 11.773L14.958 16.4368C13.1949 18.1999 10.3512 18.1999 8.5312 16.4368Z" fill="black"/>
<path d="M37.5119 18.1702C39.1911 18.1702 40.5717 17.3119 41.0009 16.0245V18.0209H43.4823V12.9833C43.4823 11.8452 42.5868 10.875 41.374 10.875H37.829V12.9833H40.3478C40.665 12.9833 40.8703 13.1886 40.8703 13.5058C40.8703 14.7185 39.2657 15.8939 37.6425 15.8939C35.4782 15.8939 33.7617 14.1961 33.7617 11.4907C33.7617 8.78534 35.4782 7.21809 37.6984 7.21809C39.3776 7.21809 40.5344 8.13232 40.7397 9.53165H43.5197C43.3517 6.73299 41.0009 4.81124 37.7171 4.81124C34.2654 4.81124 31.0936 7.03151 31.0936 11.4907C31.0936 15.9499 34.1721 18.1702 37.5119 18.1702Z" fill="black"/>
<path d="M44.5476 18.0209H47.141V4.53137H44.5476V18.0209Z" fill="black"/>
<path d="M52.7353 18.1702C55.6272 18.1702 57.6982 16.1178 57.6982 13.3192C57.6982 10.5205 55.6272 8.46816 52.7353 8.46816C49.8433 8.46816 47.7723 10.5205 47.7723 13.3192C47.7723 16.1178 49.8433 18.1702 52.7353 18.1702ZM52.7353 15.9313C51.3359 15.9313 50.3844 14.8678 50.3844 13.3192C50.3844 11.7519 51.3359 10.6884 52.7353 10.6884C54.1346 10.6884 55.0862 11.7519 55.0862 13.3192C55.0862 14.8678 54.1346 15.9313 52.7353 15.9313Z" fill="black"/>
<path d="M63.5014 18.1702C66.2814 18.1702 67.9419 16.2484 67.9419 13.3192C67.9419 10.3899 66.2814 8.46816 63.5387 8.46816C62.3633 8.46816 61.449 8.91595 60.9266 9.60628V4.53137H58.3332V18.0209H60.9266V16.9948C61.449 17.7224 62.4192 18.1702 63.5014 18.1702ZM63.0909 15.9313C61.6916 15.9313 60.7774 14.8864 60.7774 13.3192C60.7774 11.7333 61.6916 10.6884 63.0909 10.6884C64.4529 10.6884 65.3858 11.7333 65.3858 13.3192C65.3858 14.8864 64.4529 15.9313 63.0909 15.9313Z" fill="black"/>
<path d="M72.2832 8.46816C69.7085 8.46816 68.1785 9.97944 68.0666 11.8639H70.3801C70.4174 11.0802 70.9958 10.3712 72.1339 10.3712C73.1974 10.3712 73.8132 10.9123 73.8132 11.696C73.8132 12.0878 73.5706 12.3863 73.1042 12.3863H71.5182C69.4659 12.3863 68.0852 13.5058 68.0852 15.3529C68.0852 16.9574 69.3353 18.1702 71.1637 18.1702C72.4511 18.1702 73.496 17.5918 73.8132 16.7149V18.0209H76.3879V11.9758C76.3879 9.84883 74.6528 8.46816 72.2832 8.46816ZM71.8168 16.2858C71.0891 16.2858 70.5667 15.8566 70.5667 15.2409C70.5667 14.5133 71.1264 14.0282 71.9101 14.0282H73.8132V14.1588C73.8132 15.3529 73.0855 16.2858 71.8168 16.2858Z" fill="black"/>
<path d="M77.3845 18.0209H79.9779V4.53137H77.3845V18.0209Z" fill="black"/>
<path d="M81.3555 18.0209H86.6917C89.453 18.0209 91.3561 16.6029 91.3561 14.1215C91.3561 12.4049 90.3486 11.3601 89.1545 10.8937C89.9195 10.4832 90.6844 9.55031 90.6844 8.3189C90.6844 6.13594 88.9119 4.9605 86.5424 4.9605H81.3555V18.0209ZM84.1169 9.94212V7.18077H86.2812C87.5313 7.18077 88.091 7.68453 88.091 8.56145C88.091 9.43836 87.5313 9.94212 86.3372 9.94212H84.1169ZM84.1169 15.5954V12.3117H86.4491C87.9977 12.3117 88.688 12.9087 88.688 13.9722C88.688 15.0357 87.9977 15.5954 86.4491 15.5954H84.1169Z" fill="black"/>
<path d="M95.8678 8.46816C93.293 8.46816 91.7631 9.97944 91.6511 11.8639H93.9647C94.002 11.0802 94.5804 10.3712 95.7185 10.3712C96.782 10.3712 97.3977 10.9123 97.3977 11.696C97.3977 12.0878 97.1552 12.3863 96.6887 12.3863H95.1028C93.0505 12.3863 91.6698 13.5058 91.6698 15.3529C91.6698 16.9574 92.9199 18.1702 94.7483 18.1702C96.0357 18.1702 97.0805 17.5918 97.3977 16.7149V18.0209H99.9725V11.9758C99.9725 9.84883 98.2373 8.46816 95.8678 8.46816ZM95.4013 16.2858C94.6737 16.2858 94.1513 15.8566 94.1513 15.2409C94.1513 14.5133 94.711 14.0282 95.4946 14.0282H97.3977V14.1588C97.3977 15.3529 96.6701 16.2858 95.4013 16.2858Z" fill="black"/>
<path d="M100.82 18.0209H103.432V12.8714C103.432 11.6586 104.234 10.7817 105.372 10.7817C106.454 10.7817 107.182 11.6027 107.182 12.7408V18.0209H109.794V12.1624C109.794 9.99809 108.414 8.46816 106.287 8.46816C104.999 8.46816 103.954 9.00923 103.432 9.92346V8.61742H100.82V18.0209Z" fill="black"/>
<path d="M117.239 18.0209H120.373L116.325 12.3117L120.075 8.61742H116.791L113.526 11.8266V4.53137H110.914V18.0209H113.526V15.073L114.571 14.0468L117.239 18.0209Z" fill="black"/>
</svg>
