<svg width="109" height="30" viewBox="0 0 109 30" fill="none" xmlns="http://www.w3.org/2000/svg">
<path fill-rule="evenodd" clip-rule="evenodd" d="M8.49264 20.6219C3.65995 19.7269 0 15.4899 0 10.3981C0 4.65537 4.65537 0 10.3981 0C15.4899 0 19.7269 3.65995 20.6219 8.49264C20.0042 8.37824 19.3673 8.31845 18.7165 8.31845C12.9738 8.31845 8.31845 12.9738 8.31845 18.7165C8.31845 19.3673 8.37825 20.0042 8.49264 20.6219Z" fill="white"/>
<path fill-rule="evenodd" clip-rule="evenodd" d="M10.3981 20.7976C16.1408 20.7976 20.7962 16.1423 20.7962 10.3996C20.7962 9.74872 20.7364 9.11185 20.622 8.49414C25.4547 9.38913 29.1146 13.6262 29.1146 18.718C29.1146 24.4607 24.4592 29.1161 18.7165 29.1161C13.6247 29.1161 9.38767 25.4561 8.49268 20.6234C9.11039 20.7378 9.74726 20.7976 10.3981 20.7976Z" fill="white"/>
<path d="M44.6976 21.3332C48.2509 21.3332 50.8117 19.3283 51.0697 16.3507H48.0921C47.8539 17.7799 46.4842 18.7526 44.6976 18.7526C42.4545 18.7526 40.7275 17.2043 40.7275 14.2266C40.7275 11.249 42.4545 9.68079 44.6976 9.68079C46.4445 9.68079 47.8142 10.6535 48.0127 12.1026H51.1293C50.7521 9.10511 48.1914 7.12003 44.6976 7.12003C40.9855 7.12003 37.73 9.54183 37.73 14.2266C37.73 18.9114 40.926 21.3332 44.6976 21.3332Z" fill="white"/>
<path d="M56.5957 11.0108C53.8563 11.0108 52.2285 12.6187 52.1094 14.6236H54.5709C54.6106 13.7899 55.226 13.0356 56.4369 13.0356C57.5684 13.0356 58.2235 13.6113 58.2235 14.445C58.2235 14.8619 57.9654 15.1795 57.4692 15.1795H55.7818C53.5982 15.1795 52.1293 16.3705 52.1293 18.3358C52.1293 20.0429 53.4593 21.3332 55.4047 21.3332C56.7744 21.3332 57.886 20.7179 58.2235 19.7849V21.1744H60.9629V14.7428C60.9629 12.4798 59.1168 11.0108 56.5957 11.0108ZM56.0995 19.3283C55.3253 19.3283 54.7694 18.8717 54.7694 18.2167C54.7694 17.4425 55.365 16.9263 56.1987 16.9263H58.2235V17.0653C58.2235 18.3358 57.4493 19.3283 56.0995 19.3283Z" fill="white"/>
<path d="M62.8173 25.224H65.5765V20.2811C66.1125 20.9561 67.0852 21.3332 68.2167 21.3332C71.0951 21.3332 73.0404 19.2886 73.0404 16.172C73.0404 13.0554 71.2539 11.0108 68.4549 11.0108C67.1646 11.0108 66.172 11.4872 65.5765 12.2614V11.1696H62.8173V25.224ZM67.8792 18.9511C66.3904 18.9511 65.4177 17.8395 65.4177 16.172C65.4177 14.4847 66.3904 13.373 67.8792 13.373C69.3283 13.373 70.3209 14.4847 70.3209 16.172C70.3209 17.8395 69.3283 18.9511 67.8792 18.9511Z" fill="white"/>
<path d="M77.8989 21.3332C80.2413 21.3332 81.7897 20.0826 81.7897 18.1769C81.7897 13.651 76.3109 15.9735 76.3109 13.9289C76.3109 13.2936 76.8468 12.9562 77.621 12.9562C78.3753 12.9562 79.1495 13.4127 79.2686 14.2663H81.6706C81.5713 12.3011 79.9436 11.0108 77.5416 11.0108C75.497 11.0108 73.9685 12.2614 73.9685 14.0281C73.9685 18.2365 79.348 16.2316 79.348 18.2762C79.348 18.832 78.7525 19.2489 77.8989 19.2489C76.8667 19.2489 76.1719 18.6931 76.0727 17.7998H73.6906C73.7898 19.9635 75.4573 21.3332 77.8989 21.3332Z" fill="white"/>
<path d="M92.688 11.1696H89.9089V16.6484C89.9089 17.9189 89.0553 18.8717 87.8444 18.8717C86.7129 18.8717 85.9188 17.9983 85.9188 16.7874V11.1696H83.1596V17.4028C83.1596 19.6856 84.6285 21.3332 86.8717 21.3332C88.2414 21.3332 89.353 20.7377 89.9089 19.7849V21.1744H92.688V11.1696Z" fill="white"/>
<path d="M94.6732 21.1744H97.4325V6.82227H94.6732V21.1744Z" fill="white"/>
<path d="M106.104 17.7799C105.886 18.6335 105.151 19.0702 104.04 19.0702C102.65 19.0702 101.757 18.1968 101.558 16.7874H108.744C108.764 16.569 108.784 16.2713 108.784 15.8941C108.784 13.6113 107.374 11.0108 103.841 11.0108C100.447 11.0108 98.8982 13.6113 98.8982 16.1522C98.8982 18.6732 100.645 21.3332 104.04 21.3332C106.501 21.3332 108.407 19.9437 108.804 17.7799H106.104ZM103.841 13.0356C105.171 13.0356 105.945 13.9289 106.025 15.0405H101.598C101.836 13.651 102.59 13.0356 103.841 13.0356Z" fill="white"/>
</svg>
