<svg width="118" height="31" viewBox="0 0 118 31" fill="none" xmlns="http://www.w3.org/2000/svg">
<path d="M9.96458 11.9967C13.8491 10.1025 16.8891 6.88804 18.6343 2.87002C17.5084 1.66461 16.0447 0.803605 14.4684 0.287002L13.6239 0C13.5676 0.114801 13.5113 0.287009 13.5113 0.40181C12.1602 4.30503 9.40162 7.46205 5.68601 9.24146C3.09634 10.5043 1.18224 12.8003 0.281485 15.5555L0 16.4165C0.112594 16.4739 0.281488 16.5313 0.394082 16.5313C1.46373 16.9331 2.53337 17.4497 3.54672 18.0811C4.95415 15.4981 7.20603 13.3169 9.96458 11.9967Z" fill="black"/>
<path d="M26.2908 12.2268C24.2078 15.4412 21.3366 18.0242 17.7899 19.7463C14.9188 21.1239 12.7232 23.7069 11.7098 26.8065L11.4283 27.7823C12.498 28.7581 13.7928 29.5043 15.2002 29.9635L16.0447 30.2505C16.101 30.1357 16.1573 29.9635 16.1573 29.8487C17.5084 25.9455 20.267 22.7885 23.9826 21.0091C26.5723 19.7463 28.5427 17.4503 29.3871 14.695L29.6686 13.834C28.4864 13.4896 27.3604 12.9156 26.2908 12.2268Z" fill="black"/>
<path d="M9.17644 24.7968C10.5839 21.3528 13.1735 18.5402 16.4951 16.933C19.5351 15.4406 22.0685 13.1446 23.8137 10.3319C22.5189 9.06914 21.4492 7.63412 20.661 5.91211C18.5781 9.81533 15.3128 12.9724 11.3157 14.924C9.00755 16.0146 7.14975 17.9088 6.0238 20.2048C7.26234 21.4102 8.27569 22.9026 9.06385 24.5672C9.06385 24.5672 9.12014 24.682 9.17644 24.7968Z" fill="black"/>
<path d="M36.3779 21.9998H45.8651V19.3185H39.4324V7.56227H36.3779V21.9998Z" fill="black"/>
<path d="M55.777 11.6048H52.945V17.2973C52.945 18.6173 52.0751 19.6073 50.8412 19.6073C49.6882 19.6073 48.879 18.6998 48.879 17.4416V11.6048H46.0673V18.081C46.0673 20.4529 47.5642 22.1648 49.85 22.1648C51.2458 22.1648 52.3786 21.546 52.945 20.556V21.9998H55.777V11.6048Z" fill="black"/>
<path d="M56.829 21.9998H59.661V16.101C59.661 14.7604 60.4095 13.8735 61.5827 13.8735C62.6751 13.8735 63.3628 14.7604 63.3628 16.101V21.9998H66.1948V16.101C66.1948 14.7604 66.9433 13.8735 68.1166 13.8735C69.2089 13.8735 69.9169 14.7604 69.9169 16.101V21.9998H72.7287V15.1935C72.7287 13.1104 71.2924 11.4398 69.0673 11.4398C67.4288 11.4398 66.1544 12.3266 65.6689 13.3373C65.1834 12.0998 64.1518 11.4398 62.5537 11.4398C61.1782 11.4398 60.2072 12.1204 59.661 13.0691V11.6048H56.829V21.9998Z" fill="black"/>
<path d="M73.6935 7.08789V10.1198H76.6873V7.08789H73.6935ZM73.7744 21.9998H76.6064V11.6048H73.7744V21.9998Z" fill="black"/>
<path d="M77.6621 21.9998H80.4941V16.3073C80.4941 14.9666 81.3639 13.9973 82.5978 13.9973C83.7711 13.9973 84.56 14.9048 84.56 16.1629V21.9998H87.392V15.5235C87.392 13.131 85.8951 11.4398 83.589 11.4398C82.1933 11.4398 81.0605 12.0379 80.4941 13.0485V11.6048H77.6621V21.9998Z" fill="black"/>
<path d="M93.2989 22.1648C96.4343 22.1648 98.6797 19.896 98.6797 16.8023C98.6797 13.7085 96.4343 11.4398 93.2989 11.4398C90.1635 11.4398 87.9181 13.7085 87.9181 16.8023C87.9181 19.896 90.1635 22.1648 93.2989 22.1648ZM93.2989 19.6898C91.7818 19.6898 90.7501 18.5141 90.7501 16.8023C90.7501 15.0698 91.7818 13.8941 93.2989 13.8941C94.8161 13.8941 95.8477 15.0698 95.8477 16.8023C95.8477 18.5141 94.8161 19.6898 93.2989 19.6898Z" fill="black"/>
<path d="M108.936 11.6048H106.104V17.2973C106.104 18.6173 105.234 19.6073 104 19.6073C102.847 19.6073 102.038 18.6998 102.038 17.4416V11.6048H99.2265V18.081C99.2265 20.4529 100.723 22.1648 103.009 22.1648C104.405 22.1648 105.538 21.546 106.104 20.556V21.9998H108.936V11.6048Z" fill="black"/>
<path d="M113.71 22.1648C116.097 22.1648 117.675 20.8654 117.675 18.8854C117.675 14.1829 112.092 16.596 112.092 14.4716C112.092 13.8116 112.638 13.461 113.427 13.461C114.196 13.461 114.985 13.9354 115.106 14.8223H117.554C117.453 12.7804 115.794 11.4398 113.346 11.4398C111.263 11.4398 109.705 12.7391 109.705 14.5748C109.705 18.9473 115.187 16.8641 115.187 18.9885C115.187 19.566 114.58 19.9991 113.71 19.9991C112.658 19.9991 111.95 19.4216 111.849 18.4935H109.422C109.523 20.7416 111.222 22.1648 113.71 22.1648Z" fill="black"/>
</svg>
