<svg width="26" height="23" viewBox="0 0 26 23" fill="none" xmlns="http://www.w3.org/2000/svg">
<path d="M7.90678 0.01952C9.76641 0.147837 11.0871 1.09037 11.1326 2.72557C11.2479 6.87433 11.3153 11.0585 10.8999 15.1778C10.5254 18.8914 7.32661 21.7411 3.69619 22.4275C2.68865 22.618 2.13755 22.4275 1.6934 21.3018C1.53251 20.7448 1.62026 19.887 2.73137 19.3747C2.82653 19.3309 3.02176 19.2636 3.17174 19.2077C7.1617 17.72 8.3383 15.8188 7.91883 11.2467C6.53245 11.2467 5.1157 11.2662 3.69968 11.2423C1.25549 11.2011 0.0662094 10.0276 0.0188937 7.60876C-0.00719675 6.275 -0.00537291 4.93995 0.0188631 3.60612C0.0601498 1.334 1.3025 0.0808753 3.59984 0.0182518C4.98643 -0.0195462 6.3749 0.0118606 7.90678 0.01952Z" fill="#F3350C"/>
<path d="M22.3423 0.01952C24.202 0.147837 25.5226 1.09037 25.5681 2.72557C25.6835 6.87433 25.7508 11.0585 25.3355 15.1778C24.961 18.8914 21.7622 21.7411 18.1317 22.4275C17.1242 22.618 16.5731 22.4275 16.1289 21.3018C15.9681 20.7448 16.0558 19.887 17.1669 19.3747C17.2621 19.3309 17.4573 19.2636 17.6073 19.2077C21.5972 17.72 22.7738 15.8188 22.3544 11.2467C20.968 11.2467 19.5512 11.2662 18.1352 11.2423C15.691 11.2011 14.5018 10.0276 14.4544 7.60876C14.4284 6.275 14.4302 4.93995 14.4544 3.60612C14.4957 1.334 15.738 0.0808753 18.0354 0.0182518C19.422 -0.0195462 20.8104 0.0118606 22.3423 0.01952Z" fill="#F3350C"/>
</svg>
