<svg width="83" height="17" viewBox="0 0 83 17" fill="none" xmlns="http://www.w3.org/2000/svg">
<path d="M8.28145 0L10.1407 5.72234L16.1576 5.72234L11.2899 9.25894L13.1492 14.9813L8.28145 11.4447L3.41373 14.9813L5.27303 9.25894L0.405323 5.72234L6.42214 5.72234L8.28145 0Z" fill="#F3350C"/>
<path d="M24.8444 0L26.7037 5.72234L32.7206 5.72234L27.8528 9.25894L29.7121 14.9813L24.8444 11.4447L19.9767 14.9813L21.836 9.25894L16.9683 5.72234L22.9851 5.72234L24.8444 0Z" fill="#F3350C"/>
<path d="M41.4074 0L43.2667 5.72234L49.2835 5.72234L44.4158 9.25894L46.2751 14.9813L41.4074 11.4447L36.5397 14.9813L38.399 9.25894L33.5313 5.72234L39.5481 5.72234L41.4074 0Z" fill="#F3350C"/>
<path d="M57.9699 0L59.8292 5.72234L65.846 5.72234L60.9783 9.25894L62.8376 14.9813L57.9699 11.4447L53.1022 14.9813L54.9615 9.25894L50.0938 5.72234L56.1106 5.72234L57.9699 0Z" fill="#F3350C"/>
<path d="M74.5329 0L76.3922 5.72234L82.409 5.72234L77.5413 9.25894L79.4006 14.9813L74.5329 11.4447L69.6652 14.9813L71.5245 9.25894L66.6568 5.72234L72.6736 5.72234L74.5329 0Z" fill="#F3350C"/>
<mask id="mask0_10049_177" style="mask-type:alpha" maskUnits="userSpaceOnUse" x="66" y="0" width="17" height="15">
<path d="M74.5329 0L76.3922 5.72234L82.409 5.72234L77.5413 9.25894L79.4006 14.9813L74.5329 11.4447L69.6652 14.9813L71.5245 9.25894L66.6568 5.72234L72.6736 5.72234L74.5329 0Z" fill="#36503F"/>
</mask>
<g mask="url(#mask0_10049_177)">
<rect x="74.6714" y="-3.11328" width="8.14283" height="20.3466" fill="#EDEDED"/>
</g>
</svg>
