<svg width="20" height="15" viewBox="0 0 20 15" fill="none" xmlns="http://www.w3.org/2000/svg">
<path d="M1 6.36328C0.447715 6.36328 4.82823e-08 6.811 0 7.36328C-4.82823e-08 7.91557 0.447715 8.36328 1 8.36328L1 7.36328L1 6.36328ZM18.9019 8.07039C19.2925 7.67987 19.2925 7.0467 18.9019 6.65618L12.538 0.292214C12.1474 -0.09831 11.5143 -0.09831 11.1238 0.292214C10.7332 0.682739 10.7332 1.3159 11.1238 1.70643L16.7806 7.36328L11.1238 13.0201C10.7332 13.4107 10.7332 14.0438 11.1238 14.4343C11.5143 14.8249 12.1474 14.8249 12.538 14.4344L18.9019 8.07039ZM1 7.36328L1 8.36328L18.1948 8.36328L18.1948 7.36328L18.1948 6.36328L1 6.36328L1 7.36328Z" fill="black"/>
</svg>
