<svg width="9" height="9" viewBox="0 0 9 9" fill="none" xmlns="http://www.w3.org/2000/svg">
<path d="M0.21967 7.46186C-0.0732233 7.75475 -0.0732233 8.22962 0.21967 8.52252C0.512563 8.81541 0.987437 8.81541 1.28033 8.52252L0.75 7.99219L0.21967 7.46186ZM8.74128 0.750903C8.74128 0.336689 8.4055 0.000902682 7.99128 0.000902847L1.24128 0.00090271C0.82707 0.000902728 0.491284 0.336689 0.491284 0.750903C0.491284 1.16512 0.82707 1.5009 1.24128 1.5009L7.24128 1.5009L7.24128 7.5009C7.24128 7.91512 7.57707 8.2509 7.99128 8.2509C8.4055 8.2509 8.74128 7.91512 8.74128 7.5009L8.74128 0.750903ZM0.75 7.99219L1.28033 8.52252L8.52161 1.28123L7.99128 0.750903L7.46095 0.220573L0.21967 7.46186L0.75 7.99219Z" fill="white"/>
</svg>
