<svg width="48" height="42" viewBox="0 0 48 42" fill="none" xmlns="http://www.w3.org/2000/svg">
<path d="M46.6895 31.8496C46.6893 33.0563 46.1131 34.249 44.9814 35.3809C43.8477 36.5149 42.1822 37.5596 40.084 38.4473C35.8895 40.2218 30.0598 41.3311 23.5947 41.3311C17.1296 41.331 11.3 40.2218 7.10547 38.4473C5.00729 37.5596 3.34173 36.5148 2.20801 35.3809C1.07644 34.249 0.500128 33.0562 0.5 31.8496C0.5 30.6428 1.07626 29.4494 2.20801 28.3174C3.34174 27.1834 5.00726 26.1387 7.10547 25.251C11.3 23.4764 17.1297 22.3672 23.5947 22.3672C30.0598 22.3672 35.8895 23.4764 40.084 25.251C42.1822 26.1387 43.8477 27.1834 44.9814 28.3174C46.1132 29.4494 46.6895 30.6428 46.6895 31.8496Z" stroke="black"/>
<path d="M46.6895 24.5586C46.6893 25.7653 46.1131 26.9579 44.9814 28.0898C43.8477 29.2239 42.1822 30.2686 40.084 31.1563C35.8895 32.9308 30.0598 34.04 23.5947 34.04C17.1296 34.04 11.3 32.9308 7.10547 31.1563C5.00729 30.2686 3.34173 29.2238 2.20801 28.0898C1.07644 26.958 0.500128 25.7652 0.5 24.5586C0.5 23.3518 1.07626 22.1584 2.20801 21.0264C3.34174 19.8924 5.00726 18.8476 7.10547 17.96C11.3 16.1854 17.1297 15.0762 23.5947 15.0762C30.0598 15.0762 35.8895 16.1854 40.084 17.96C42.1822 18.8476 43.8477 19.8924 44.9814 21.0264C46.1132 22.1584 46.6895 23.3518 46.6895 24.5586Z" stroke="black"/>
<path d="M46.6899 17.2695C46.6898 18.4762 46.1136 19.6689 44.9819 20.8008C43.8482 21.9348 42.1827 22.9795 40.0845 23.8672C35.8899 25.6417 30.0603 26.751 23.5952 26.751C17.1301 26.751 11.3005 25.6417 7.10596 23.8672C5.00778 22.9795 3.34222 21.9348 2.2085 20.8008C1.07693 19.6689 0.500617 18.4762 0.500488 17.2695C0.500488 16.0627 1.07674 14.8693 2.2085 13.7373C3.34223 12.6033 5.00775 11.5586 7.10596 10.6709C11.3005 8.89636 17.1301 7.78712 23.5952 7.78711C30.0603 7.78711 35.8899 8.89637 40.0845 10.6709C42.1827 11.5586 43.8482 12.6033 44.9819 13.7373C46.1137 14.8694 46.6899 16.0627 46.6899 17.2695Z" stroke="black"/>
<path d="M46.6899 9.98242C46.6898 11.1891 46.1136 12.3818 44.9819 13.5137C43.8482 14.6477 42.1827 15.6924 40.0845 16.5801C35.8899 18.3546 30.0603 19.4639 23.5952 19.4639C17.1301 19.4639 11.3005 18.3546 7.10596 16.5801C5.00778 15.6924 3.34222 14.6477 2.2085 13.5137C1.07693 12.3818 0.500617 11.1891 0.500488 9.98242C0.500488 8.77561 1.07674 7.58223 2.2085 6.4502C3.34223 5.3162 5.00775 4.27147 7.10596 3.38379C11.3005 1.60925 17.1301 0.500012 23.5952 0.500001C30.0603 0.500001 35.8899 1.60926 40.0845 3.38379C42.1827 4.27147 43.8482 5.31621 44.9819 6.4502C46.1137 7.58224 46.6899 8.7756 46.6899 9.98242Z" stroke="black"/>
</svg>
