<svg width="111" height="110" viewBox="0 0 111 110" fill="none" xmlns="http://www.w3.org/2000/svg">
<path d="M64.5014 5.37773L63.4137 5.09737L66.8388 0L68.0883 0.322071L68.6187 6.43901L67.5348 6.15962L67.1855 1.31752L67.1403 1.30588L64.5014 5.37773ZM65.1056 3.18953L68.0599 3.95106L67.8504 4.76398L64.896 4.00245L65.1056 3.18953Z" fill="black"/>
<path d="M73.2326 7.96374L74.2856 2.04002L75.3002 2.53096L74.3875 6.81716L74.433 6.83917L77.2908 3.49422L78.2179 3.94284L77.3595 8.25963L77.412 8.28502L80.2015 4.90272L81.2231 5.39705L77.2278 9.89704L76.2937 9.44503L77.0186 5.28816L76.9766 5.26784L74.1701 8.41744L73.2326 7.96374Z" fill="black"/>
<path d="M82.5006 12.7116L81.61 12.0272L86.7594 8.68091L87.7825 9.4671L85.8721 15.3022L84.9845 14.6202L86.5617 10.0289L86.5248 10.0005L82.5006 12.7116ZM83.9144 10.9355L86.3336 12.7944L85.8221 13.4601L83.4029 11.6012L83.9144 10.9355Z" fill="black"/>
<path d="M89.1472 17.9125L93.433 14.018L94.8941 15.6259C95.1938 15.9557 95.3872 16.2841 95.4742 16.6111C95.5631 16.94 95.5562 17.2561 95.4536 17.5594C95.353 17.8609 95.1665 18.1353 94.8942 18.3828C94.62 18.6319 94.3291 18.7895 94.0215 18.8555C93.7156 18.9234 93.4052 18.8939 93.0903 18.7669C92.7753 18.64 92.468 18.4116 92.1683 18.0818L91.1307 16.9399L91.7721 16.357L92.713 17.3925C92.889 17.5862 93.0596 17.72 93.2248 17.7939C93.3918 17.8698 93.5532 17.8894 93.709 17.8528C93.8685 17.8164 94.024 17.7294 94.1755 17.5918C94.327 17.4541 94.4294 17.3068 94.4828 17.1497C94.538 16.991 94.5377 16.825 94.4818 16.6517C94.4278 16.4767 94.312 16.2914 94.1342 16.0958L93.4886 15.3854L89.8529 18.6891L89.1472 17.9125ZM91.3349 20.32L92.3358 17.5148L93.1042 18.3604L92.1243 21.1887L91.3349 20.32Z" fill="black"/>
<path d="M95.9198 25.9985L95.1416 24.7525L95.913 24.2707L96.6624 25.4706C96.8751 25.8112 97.1144 26.0574 97.3802 26.2091C97.6496 26.3616 97.9452 26.4167 98.2671 26.3746C98.5904 26.3346 98.9399 26.1972 99.3157 25.9625C99.6915 25.7278 99.9679 25.4758 100.145 25.2064C100.322 24.937 100.401 24.6507 100.383 24.3475C100.367 24.0429 100.254 23.7236 100.046 23.3896L99.2654 22.1402L100.037 21.6585L100.85 22.9605C101.155 23.4484 101.318 23.9281 101.341 24.3997C101.365 24.8735 101.253 25.3195 101.004 25.7377C100.755 26.1559 100.375 26.5242 99.8654 26.8426C99.3556 27.1611 98.857 27.3411 98.3698 27.3827C97.8848 27.4229 97.4322 27.3268 97.012 27.0943C96.5955 26.8626 96.2314 26.4974 95.9198 25.9985ZM100.346 22.1529L95.434 25.2205L94.8781 24.3305L99.7897 21.2629L100.346 22.1529Z" fill="black"/>
<path d="M102.081 38.3357L107.323 35.383L107.589 36.4782L103.7 38.4984L103.712 38.5475L108.111 38.6272L108.354 39.6281L104.476 41.7096L104.49 41.7662L108.874 41.7695L109.142 42.8723L103.128 42.6488L102.883 41.6404L106.553 39.5574L106.542 39.5121L102.327 39.3478L102.081 38.3357Z" fill="black"/>
<path d="M110.271 48.9493L104.493 49.3328L104.423 48.2858L110.201 47.9022L110.271 48.9493Z" fill="black"/>
<path d="M110.103 59.1337L104.332 58.6474L104.411 57.7101L108.571 55.3266L108.575 55.2763L104.645 54.945L104.733 53.8993L110.503 54.3857L110.424 55.3229L106.264 57.7064L106.26 57.7568L110.191 58.0881L110.103 59.1337Z" fill="black"/>
<path d="M108.169 69.3285L102.591 67.7724L102.844 66.8664L107.376 65.3023L107.389 65.2536L103.589 64.1935L103.871 63.1828L109.449 64.7389L109.197 65.6449L104.665 67.209L104.651 67.2577L108.451 68.3178L108.169 69.3285Z" fill="black"/>
<path d="M106.149 75.4882L100.872 73.1035L101.304 72.1473L106.581 74.532L106.149 75.4882Z" fill="black"/>
<path d="M101.193 84.3938L96.3366 81.2399L96.8489 80.451L101.641 80.3146L101.669 80.2723L98.3603 78.1237L98.9318 77.2437L103.788 80.3976L103.276 81.1864L98.4839 81.3229L98.4564 81.3652L101.765 83.5138L101.193 84.3938Z" fill="black"/>
<path d="M91.975 86.7966C92.3428 86.4133 92.7535 86.1593 93.2072 86.0345C93.6592 85.9116 94.123 85.9222 94.5988 86.0663C95.0745 86.2104 95.5321 86.4933 95.9714 86.9149C96.4201 87.3455 96.7254 87.7982 96.8872 88.2732C97.0473 88.75 97.0743 89.214 96.9681 89.6651C96.8639 90.1181 96.6368 90.5268 96.287 90.8914C96.0645 91.1232 95.8245 91.3059 95.5671 91.4395C95.3078 91.5749 95.0411 91.6601 94.767 91.6951C94.4947 91.7318 94.2259 91.7181 93.9607 91.654C93.6937 91.5917 93.4422 91.4796 93.2061 91.3177L93.9461 90.5465C94.0887 90.6187 94.2327 90.6671 94.378 90.6916C94.5214 90.7179 94.6644 90.7186 94.8068 90.6937C94.9493 90.6725 95.0867 90.6247 95.2189 90.5505C95.3512 90.4763 95.4783 90.3757 95.6003 90.2486C95.8138 90.0261 95.9478 89.7723 96.0024 89.4871C96.0589 89.2037 96.0262 88.9066 95.9043 88.5958C95.7825 88.2886 95.5646 87.9843 95.2506 87.6829C94.9346 87.3797 94.6197 87.1727 94.3059 87.0619C93.9921 86.9511 93.693 86.9298 93.4085 86.9979C93.1259 87.0679 92.8725 87.2197 92.6482 87.4534C92.4455 87.6646 92.3099 87.8864 92.2414 88.1187C92.1747 88.3528 92.1758 88.5837 92.2447 88.8113C92.3135 89.039 92.4498 89.2506 92.6535 89.4461L92.4587 89.5931L93.5485 88.4574L94.1402 89.0252L92.5121 90.7217L92.013 90.2427C91.6541 89.8983 91.4173 89.5257 91.3028 89.1249C91.1882 88.7241 91.1891 88.3209 91.3054 87.9154C91.4217 87.5135 91.6449 87.1405 91.975 86.7966Z" fill="black"/>
<path d="M81.0687 95.9733C81.4612 95.7514 81.8362 95.6197 82.1937 95.5782C82.5513 95.5368 82.877 95.5863 83.1707 95.7267C83.4658 95.8695 83.7144 96.1039 83.9167 96.43L83.0168 96.9389C82.9038 96.7707 82.7668 96.6547 82.6057 96.591C82.4459 96.5295 82.2728 96.5128 82.0863 96.5409C81.8975 96.5703 81.7084 96.6385 81.5189 96.7457C81.3204 96.8579 81.1629 96.9872 81.0462 97.1335C80.9295 97.2799 80.8589 97.4314 80.8344 97.5881C80.81 97.7449 80.8385 97.8954 80.9202 98.0397C80.9941 98.1705 81.0931 98.256 81.2169 98.2961C81.3421 98.3384 81.4889 98.3507 81.6574 98.3328C81.8259 98.3149 82.0142 98.2768 82.2224 98.2186L82.8783 98.0442C83.3532 97.9155 83.7715 97.8918 84.133 97.9732C84.4958 98.0567 84.7798 98.2801 84.9852 98.6432C85.1535 98.9409 85.2201 99.2456 85.185 99.5571C85.1511 99.871 85.0305 100.168 84.8233 100.449C84.6138 100.731 84.3331 100.972 83.9812 101.171C83.6226 101.374 83.2729 101.49 82.9321 101.519C82.5913 101.548 82.2824 101.496 82.0053 101.364C81.7282 101.232 81.506 101.026 81.3385 100.746L82.2215 100.246C82.3665 100.45 82.5567 100.563 82.7922 100.584C83.0267 100.609 83.2804 100.545 83.5533 100.391C83.7427 100.283 83.8903 100.163 83.996 100.029C84.0994 99.8957 84.1592 99.7592 84.1752 99.6191C84.1913 99.4791 84.1636 99.3459 84.0922 99.2196C84.0131 99.0798 83.9063 98.9883 83.7719 98.9453C83.6364 98.9058 83.488 98.896 83.3266 98.9159C83.1629 98.937 83.0021 98.9684 82.8441 99.0101L82.3069 99.1576C82.0919 99.2196 81.8748 99.262 81.6555 99.2848C81.4375 99.3099 81.2261 99.3045 81.0212 99.2685C80.8153 99.2361 80.6259 99.1616 80.4529 99.0452C80.2776 98.93 80.1281 98.763 80.0044 98.5442C79.8386 98.251 79.7675 97.9489 79.791 97.6379C79.8159 97.3292 79.9347 97.0313 80.1474 96.7443C80.3602 96.4573 80.6673 96.2003 81.0687 95.9733Z" fill="black"/>
<path d="M72.9719 99.9494C73.4497 99.7853 73.9181 99.7492 74.377 99.841C74.8334 99.9336 75.2438 100.152 75.6082 100.495C75.9701 100.839 76.2521 101.305 76.454 101.893C76.6567 102.484 76.721 103.026 76.6467 103.52C76.5708 104.017 76.3813 104.443 76.078 104.796C75.7722 105.15 75.3804 105.41 74.9025 105.574C74.4222 105.738 73.9551 105.774 73.5011 105.681C73.0471 105.587 72.6375 105.368 72.2723 105.022C71.9079 104.679 71.6243 104.212 71.4216 103.621C71.2197 103.033 71.1571 102.491 71.2338 101.997C71.3105 101.502 71.4992 101.078 71.8001 100.726C72.1009 100.373 72.4915 100.114 72.9719 99.9494ZM73.2772 100.839C72.9807 100.941 72.7437 101.104 72.5663 101.33C72.3888 101.555 72.284 101.832 72.2517 102.161C72.2202 102.492 72.2756 102.865 72.4177 103.279C72.5608 103.696 72.7464 104.025 72.9747 104.267C73.203 104.509 73.4564 104.665 73.7348 104.733C74.0132 104.802 74.3006 104.786 74.5972 104.684C74.8937 104.582 75.1319 104.418 75.3118 104.192C75.4892 103.967 75.5937 103.689 75.6251 103.357C75.6566 103.026 75.6008 102.652 75.4578 102.235C75.3156 101.821 75.1304 101.493 74.9021 101.251C74.6746 101.011 74.4217 100.857 74.1433 100.788C73.8624 100.72 73.5738 100.737 73.2772 100.839Z" fill="black"/>
<path d="M66.2884 102.247L67.1673 107.971L66.1301 108.13L65.3845 103.275L62.8606 103.662L62.7273 102.794L66.2884 102.247Z" fill="black"/>
<path d="M54.6741 109.099L53.6288 109.078L53.7023 105.297C53.7104 104.883 53.8146 104.52 54.015 104.207C54.2154 103.898 54.4935 103.657 54.8493 103.485C55.205 103.316 55.6186 103.236 56.0901 103.245C56.5616 103.254 56.9718 103.35 57.3207 103.533C57.6695 103.719 57.9393 103.97 58.1301 104.287C58.3182 104.607 58.4083 104.974 58.4002 105.389L58.3267 109.17L57.2776 109.149L57.3494 105.454C57.3541 105.21 57.3052 104.994 57.2026 104.806C57.1 104.617 56.9527 104.467 56.7605 104.354C56.5657 104.244 56.3361 104.186 56.0719 104.181C55.8077 104.176 55.5774 104.225 55.381 104.327C55.1846 104.432 55.0315 104.577 54.9217 104.761C54.8092 104.946 54.7506 105.16 54.7459 105.403L54.6741 109.099Z" fill="black"/>
<path d="M48.4494 107.989L48.2744 108.849L43.7498 107.929L43.9249 107.068L45.6768 107.425L46.6558 102.611L47.6727 102.817L46.6937 107.631L48.4494 107.989Z" fill="black"/>
<path d="M37.7469 106.432L39.7034 100.982L40.6911 101.336L38.7345 106.787L37.7469 106.432Z" fill="black"/>
<path d="M33.2502 98.0985C33.6935 98.341 34.0358 98.6627 34.2773 99.0636C34.5164 99.4632 34.632 99.9133 34.6239 100.414C34.6135 100.913 34.4591 101.436 34.1607 101.981C33.8609 102.529 33.5036 102.942 33.0887 103.22C32.6702 103.499 32.2282 103.646 31.7627 103.66C31.2949 103.673 30.8394 103.558 30.3962 103.315C29.9507 103.072 29.6095 102.75 29.3726 102.352C29.1357 101.954 29.0219 101.503 29.0312 101C29.0393 100.5 29.1932 99.9754 29.4929 99.4276C29.7914 98.882 30.1492 98.4709 30.5664 98.1941C30.9837 97.9173 31.4239 97.7713 31.8871 97.7559C32.3503 97.7406 32.8047 97.8548 33.2502 98.0985ZM32.7988 98.9237C32.5238 98.7732 32.2432 98.7083 31.9572 98.7291C31.6712 98.7498 31.3958 98.859 31.1311 99.0568C30.8651 99.2568 30.6271 99.5489 30.4169 99.9331C30.2055 100.319 30.0873 100.679 30.0622 101.011C30.0372 101.342 30.0931 101.634 30.2299 101.886C30.3667 102.138 30.5726 102.34 30.8476 102.49C31.1226 102.641 31.4043 102.706 31.6926 102.687C31.9786 102.666 32.2546 102.555 32.5206 102.355C32.7865 102.155 33.0252 101.862 33.2367 101.476C33.4468 101.092 33.5644 100.734 33.5894 100.402C33.6132 100.072 33.5567 99.7813 33.42 99.5293C33.2809 99.276 33.0738 99.0741 32.7988 98.9237Z" fill="black"/>
<path d="M19.6871 96.1292L23.3782 91.6671L24.1029 92.2666L23.6878 97.0428L23.7267 97.075L26.2411 94.0354L27.0497 94.7042L23.3585 99.1663L22.6338 98.5668L23.049 93.7906L23.0101 93.7584L20.4956 96.798L19.6871 96.1292Z" fill="black"/>
<path d="M18.6681 87.0775C18.9577 87.4231 19.1554 87.7679 19.2612 88.1119C19.367 88.456 19.3776 88.7852 19.2929 89.0996C19.2062 89.4157 19.0209 89.7028 18.737 89.9611L18.0729 89.1687C18.2178 89.027 18.307 88.8712 18.3403 88.7012C18.3717 88.5329 18.3566 88.3596 18.2951 88.1813C18.2318 88.001 18.1303 87.8275 17.9905 87.6607C17.8441 87.4859 17.6883 87.3545 17.5231 87.2664C17.358 87.1783 17.1962 87.1365 17.0376 87.1409C16.879 87.1453 16.7362 87.2008 16.6091 87.3073C16.4939 87.4039 16.4279 87.5167 16.411 87.6458C16.3922 87.7765 16.4068 87.9231 16.4551 88.0855C16.5033 88.248 16.575 88.4262 16.6701 88.6204L16.9609 89.2336C17.1739 89.6772 17.2732 90.0842 17.259 90.4544C17.2428 90.8264 17.0749 91.1463 16.7552 91.4143C16.493 91.634 16.2056 91.7549 15.8928 91.777C15.578 91.8008 15.2637 91.7363 14.9498 91.5836C14.6342 91.4289 14.3465 91.1967 14.0869 90.8869C13.8223 90.5712 13.6447 90.2484 13.5542 89.9186C13.4637 89.5887 13.4581 89.2756 13.5376 88.9791C13.617 88.6826 13.7793 88.4266 14.0245 88.2109L14.6762 88.9883C14.5022 89.168 14.426 89.3755 14.4475 89.611C14.4654 89.8462 14.5751 90.0839 14.7765 90.3242C14.9163 90.491 15.0618 90.6141 15.213 90.6936C15.3625 90.7712 15.5075 90.8051 15.6482 90.7954C15.7888 90.7857 15.9147 90.7343 16.0259 90.6411C16.149 90.5379 16.2195 90.4163 16.2374 90.2762C16.2516 90.1358 16.2342 89.9881 16.1854 89.833C16.1348 89.6759 16.0747 89.5234 16.0049 89.3757L15.7621 88.8743C15.662 88.6742 15.5808 88.4684 15.5185 88.2569C15.4542 88.0471 15.4211 87.8382 15.4192 87.6302C15.4137 87.4219 15.4524 87.222 15.5355 87.0307C15.6168 86.8374 15.7539 86.66 15.9465 86.4986C16.2046 86.2822 16.4887 86.1573 16.7988 86.1239C17.1069 86.0922 17.4214 86.1549 17.7424 86.3119C18.0633 86.4688 18.3719 86.7241 18.6681 87.0775Z" fill="black"/>
<path d="M7.96052 76.2959L8.72333 75.9454L9.81058 78.3115L9.04776 78.662L7.96052 76.2959Z" fill="black"/>
<path d="M6.88037 63.7418C6.95203 64.1869 6.94515 64.5843 6.85973 64.9339C6.77431 65.2836 6.61468 65.5717 6.38085 65.7983C6.14446 66.0254 5.83821 66.177 5.46208 66.2533L5.29776 65.2326C5.49482 65.1852 5.65121 65.097 5.76693 64.9682C5.8801 64.8397 5.95593 64.6832 5.99444 64.4985C6.03253 64.3113 6.03428 64.1102 5.99968 63.8954C5.96344 63.6702 5.89699 63.4776 5.80033 63.3173C5.70366 63.157 5.58611 63.0382 5.44768 62.9607C5.30924 62.8833 5.15816 62.8577 4.99444 62.8841C4.84607 62.908 4.73157 62.971 4.65092 63.0732C4.56772 63.1759 4.50521 63.3093 4.46341 63.4735C4.42162 63.6377 4.39181 63.8275 4.37401 64.0429L4.30958 64.7186C4.26513 65.2086 4.14195 65.609 3.94003 65.9197C3.73555 66.2308 3.42738 66.4195 3.01553 66.4858C2.67786 66.5402 2.36906 66.4967 2.08913 66.3555C1.80664 66.2146 1.56972 65.9982 1.37837 65.7062C1.18661 65.4116 1.0586 65.0648 0.994352 64.6658C0.928869 64.259 0.941764 63.8909 1.03304 63.5612C1.12431 63.2316 1.28001 62.9599 1.50014 62.746C1.72027 62.5321 1.99087 62.3953 2.31196 62.3358L2.47319 63.3373C2.23174 63.4024 2.05994 63.5416 1.95781 63.7548C1.85271 63.966 1.82507 64.2263 1.87491 64.5358C1.9095 64.7507 1.97134 64.931 2.06041 65.0768C2.14907 65.2199 2.25627 65.3234 2.38201 65.3871C2.50774 65.4509 2.64223 65.4712 2.78549 65.4482C2.94409 65.4226 3.06693 65.3543 3.15402 65.2432C3.23813 65.1299 3.29894 64.9941 3.33645 64.8359C3.37354 64.6751 3.4 64.5134 3.4158 64.3507L3.46423 63.7957C3.4808 63.5726 3.51651 63.3543 3.57136 63.1408C3.62365 62.9277 3.70226 62.7313 3.80719 62.5517C3.90915 62.3699 4.0448 62.2182 4.21416 62.0964C4.3831 61.9721 4.59164 61.89 4.83978 61.8501C5.17233 61.7965 5.4803 61.8349 5.7637 61.9651C6.04455 62.0957 6.28254 62.3106 6.47769 62.6099C6.67283 62.9091 6.80706 63.2864 6.88037 63.7418Z" fill="black"/>
<path d="M0 56.3427L5.78991 56.2338L5.80964 57.2829L0.0197336 57.3918L0 56.3427Z" fill="black"/>
<path d="M0.652794 46.1766L6.39345 46.938L6.26978 47.8704L2.00097 50.0525L1.99433 50.1026L5.90491 50.6213L5.76693 51.6615L0.0262731 50.9001L0.149942 49.9677L4.41876 47.7856L4.4254 47.7355L0.514817 47.2168L0.652794 46.1766Z" fill="black"/>
<path d="M7.93574 40.0762C7.77549 40.5581 7.52013 40.9524 7.16967 41.2591C6.82002 41.5633 6.3986 41.7549 5.90541 41.834C5.41303 41.9105 4.8718 41.8507 4.28173 41.6544C3.6892 41.4574 3.2191 41.1796 2.87144 40.8209C2.52214 40.459 2.29857 40.0516 2.20075 39.5985C2.10374 39.143 2.13454 38.6768 2.29315 38.1998C2.39372 37.8974 2.53077 37.629 2.70431 37.3945C2.87866 37.1576 3.08377 36.9637 3.31963 36.8127C3.55304 36.661 3.81189 36.56 4.09617 36.5098C4.3788 36.4564 4.67951 36.4595 4.99828 36.519L4.6647 37.5222C4.48852 37.4936 4.32342 37.4974 4.16941 37.5336C4.01621 37.5673 3.87615 37.6272 3.74921 37.7133C3.62063 37.7962 3.51009 37.9028 3.4176 38.0331C3.32265 38.1626 3.24737 38.311 3.19177 38.4782C3.09203 38.7781 3.07871 39.0686 3.15184 39.3496C3.2225 39.6297 3.38123 39.8832 3.62801 40.11C3.87234 40.336 4.20103 40.5176 4.61408 40.655C5.03205 40.794 5.40654 40.8462 5.73753 40.8115C6.06688 40.7736 6.34334 40.6648 6.56689 40.4852C6.78881 40.3024 6.94923 40.0622 7.04816 39.7647C7.10294 39.5999 7.13314 39.4393 7.13876 39.2828C7.14193 39.1255 7.1197 38.9748 7.07207 38.8306C7.02281 38.6831 6.94938 38.5509 6.85179 38.4338C6.75257 38.3134 6.62713 38.2103 6.47549 38.1243L6.80907 37.1212C7.05988 37.2456 7.27999 37.4089 7.46941 37.6111C7.65718 37.8101 7.80483 38.0394 7.91235 38.2991C8.01823 38.5554 8.07578 38.834 8.08501 39.1347C8.09424 39.4354 8.04448 39.7492 7.93574 40.0762Z" fill="black"/>
<path d="M10.091 33.5854L5.00867 30.8096L6.81573 27.501L7.5866 27.922L6.28254 30.3097L7.64692 31.0549L8.85411 28.8446L9.61475 29.26L8.40756 31.4703L9.8231 32.2434L11.1346 29.8421L11.9055 30.2631L10.091 33.5854Z" fill="black"/>
<path d="M17.3309 22.0849L16.794 21.5555L16.8018 18.7357C16.7962 18.4646 16.7845 18.2311 16.7666 18.0351C16.7506 17.8374 16.7155 17.6663 16.6614 17.522C16.6054 17.3758 16.5202 17.2463 16.4058 17.1335C16.2767 17.0061 16.1359 16.9256 15.9836 16.8918C15.8313 16.8581 15.6793 16.8683 15.5276 16.9225C15.3778 16.9749 15.2382 17.0665 15.1091 17.1975C14.9744 17.3341 14.8848 17.4803 14.8401 17.6364C14.7954 17.7924 14.7955 17.9491 14.8406 18.1063C14.8875 18.2617 14.9811 18.4086 15.1213 18.5468L14.4227 19.2553C14.1625 18.9988 13.9948 18.7169 13.9193 18.4096C13.8439 18.0987 13.8563 17.7853 13.9567 17.4694C14.0571 17.1536 14.241 16.8601 14.5084 16.5889C14.7831 16.3103 15.0749 16.1177 15.3838 16.0111C15.6927 15.9045 15.9949 15.8822 16.2903 15.9443C16.5839 16.0045 16.846 16.1484 17.0766 16.3758C17.2315 16.5286 17.3546 16.7082 17.4459 16.9146C17.5352 17.1192 17.5976 17.3862 17.6329 17.7158C17.6681 18.0417 17.6821 18.4648 17.6747 18.9852L17.6984 20.4059L17.7288 20.4359L19.4972 18.6426L20.1198 19.2566L17.3309 22.0849Z" fill="black"/>
<path d="M25.0488 14.9738C24.6675 15.2469 24.2732 15.386 23.8656 15.3912C23.4587 15.3926 23.0554 15.2657 22.6556 15.0102C22.2544 14.7527 21.8711 14.3691 21.5059 13.8594C21.1407 13.3497 20.9007 12.8634 20.7859 12.4006C20.6696 11.9357 20.6783 11.5119 20.8121 11.1292C20.9464 10.7429 21.2042 10.4132 21.5855 10.14C21.9646 9.86839 22.3587 9.73107 22.7677 9.72807C23.1767 9.72506 23.5819 9.85233 23.9831 10.1099C24.3844 10.3674 24.7676 10.7511 25.1328 11.2608C25.498 11.7705 25.738 12.2567 25.8529 12.7195C25.9662 13.1802 25.9567 13.6029 25.8244 13.9877C25.6906 14.3704 25.4321 14.6991 25.0488 14.9738ZM24.5372 14.2598C24.7415 14.1134 24.8667 13.9233 24.9127 13.6895C24.9609 13.4542 24.9313 13.1838 24.8239 12.8782C24.7171 12.569 24.5347 12.2344 24.2766 11.8742C24.0171 11.5119 23.7581 11.2305 23.4997 11.03C23.2434 10.828 22.9961 10.7119 22.7578 10.6818C22.5201 10.6481 22.2991 10.7045 22.0948 10.8509C21.7873 11.0712 21.6575 11.3905 21.7054 11.8088C21.7538 12.2235 21.9728 12.7025 22.3621 13.2459C22.6202 13.6061 22.8773 13.8872 23.1336 14.0892C23.3885 14.2891 23.635 14.4042 23.8733 14.4342C24.1116 14.4643 24.3329 14.4061 24.5372 14.2598Z" fill="black"/>
<path d="M29.8354 4.91811L32.4337 10.0934L31.5029 10.5607L29.3631 6.29896L29.3319 6.31465L28.512 7.69607L28.0796 6.83468L28.9497 5.3628L29.8354 4.91811Z" fill="black"/>
<path d="M36.4913 8.11921L36.2621 7.40091L37.5798 4.90798C37.701 4.66536 37.7992 4.45316 37.8744 4.2714C37.9522 4.08885 38.0006 3.92108 38.0198 3.7681C38.0382 3.61264 38.023 3.4584 37.9741 3.30535C37.919 3.13257 37.8318 2.99583 37.7127 2.89515C37.5935 2.79446 37.4542 2.73285 37.2947 2.71031C37.1377 2.68699 36.9715 2.70329 36.7963 2.75921C36.6136 2.81749 36.4662 2.90532 36.3541 3.0227C36.242 3.14007 36.1693 3.27885 36.1361 3.43902C36.1054 3.59842 36.1199 3.77191 36.1798 3.95951L35.2319 4.26197C35.1209 3.91392 35.1034 3.58634 35.1794 3.27921C35.2572 2.96884 35.4139 2.69717 35.6496 2.46421C35.8853 2.23125 36.1846 2.05688 36.5475 1.94109C36.9202 1.82216 37.2681 1.7873 37.5911 1.83653C37.9142 1.88576 38.192 2.00651 38.4247 2.19879C38.6566 2.3886 38.8218 2.63779 38.9203 2.94634C38.9864 3.15368 39.0119 3.36993 38.9967 3.59507C38.9808 3.81775 38.9118 4.08317 38.7898 4.39134C38.6695 4.69626 38.4852 5.07738 38.2367 5.53469L37.5972 6.80353L37.6102 6.84426L40.0095 6.07866L40.2753 6.91175L36.4913 8.11921Z" fill="black"/>
<path d="M52.2332 1.69272L52.3029 2.52931L49.7079 2.74562L49.6382 1.90903L52.2332 1.69272Z" fill="black"/>
</svg>
