<svg width="26" height="26" viewBox="0 0 26 26" fill="none" xmlns="http://www.w3.org/2000/svg">
<path d="M16.2092 6.27454C14.7682 6.27454 13.5948 7.44787 13.5948 8.88893C13.5948 10.33 14.7682 11.5033 16.2092 11.5033C17.6503 11.5033 18.8236 10.33 18.8236 8.88893C18.8236 7.44787 17.6503 6.27454 16.2092 6.27454ZM16.2092 10.4576C15.3444 10.4576 14.6406 9.75377 14.6406 8.88893C14.6406 8.02409 15.3444 7.32029 16.2092 7.32029C17.0741 7.32029 17.7779 8.02409 17.7779 8.88893C17.7779 9.75377 17.0741 10.4576 16.2092 10.4576ZM25.0981 2.61439C25.0981 1.17334 23.9248 0 22.4691 0C17.301 0.147452 12.593 2.66877 8.75821 7.32134C7.09964 7.34121 5.44525 7.74382 3.96342 8.48736C1.55608 9.6952 0 12.3159 0 15.1635V15.6863H5.22878C6.34565 15.6863 7.39663 16.1214 8.18722 16.9109C8.97677 17.7015 9.4118 18.7514 9.4118 19.8694V25.0981H9.93468C12.7823 25.0981 15.4029 23.5431 16.6108 21.1358C17.3554 19.6539 17.7569 17.9985 17.7768 16.3399C22.4283 12.5051 24.9507 7.79611 25.0981 2.61439ZM4.43191 9.42226C5.51323 8.87951 6.69598 8.5386 7.90069 8.41729C7.7982 8.55533 7.69572 8.69442 7.59428 8.83559C5.97022 11.1017 4.75819 13.7339 4.3608 14.6406H1.06563C1.23922 12.3922 2.52236 10.3802 4.43191 9.42226ZM15.6759 20.6662C14.7169 22.5758 12.7059 23.8589 10.4576 24.0325V20.7373C11.3653 20.34 13.9964 19.1279 16.2636 17.5039C16.4048 17.4024 16.5439 17.301 16.6819 17.1985C16.5606 18.4032 16.2197 19.586 15.6769 20.6673L15.6759 20.6662ZM15.6539 16.6537C13.7684 18.0048 11.5608 19.085 10.4502 19.5933C10.3833 18.3007 9.84788 17.095 8.92657 16.1726C8.00422 15.2503 6.79846 14.7159 5.50591 14.649C6.01414 13.5384 7.09441 11.3308 8.44553 9.44527C11.1153 5.71924 15.7208 1.23818 22.4838 1.04576C23.3486 1.04576 24.0524 1.74955 24.0524 2.59975C23.86 9.37729 19.3789 13.9828 15.6539 16.6537ZM1.81125 19.5891C0.922357 20.4769 0.327322 23.6477 0.217517 24.2741L0.0878435 25.0093L0.82301 24.8796C1.44942 24.7698 4.62015 24.1747 5.508 23.2858C6.00159 22.7923 6.27349 22.1355 6.27349 21.437C6.27349 20.7384 6.00159 20.0817 5.508 19.5881C4.52185 18.6009 2.7974 18.6019 1.81125 19.5891ZM4.76865 22.5465C4.36499 22.9502 2.74616 23.4155 1.39399 23.7031C1.68158 22.3509 2.14694 20.7321 2.5506 20.3284C2.84655 20.0325 3.2408 19.8694 3.66015 19.8694C4.07949 19.8694 4.4727 20.0325 4.76969 20.3284C5.06669 20.6244 5.22878 21.0187 5.22878 21.438C5.22878 21.8573 5.06564 22.2506 4.76969 22.5475L4.76865 22.5465Z" fill="white"/>
</svg>
