<svg width="8" height="15" viewBox="0 0 8 15" fill="none" xmlns="http://www.w3.org/2000/svg">
<path d="M0.00509011 6.08139C0.00529702 5.85189 0.016383 5.64918 0.00280941 5.44812C-0.0124943 5.22143 0.0772333 5.13534 0.30508 5.13966C0.821192 5.14946 1.33806 5.13025 1.85373 5.14823C2.11479 5.15733 2.20094 5.04274 2.20192 4.81137C2.20434 4.24219 2.2068 3.67301 2.21104 3.10384C2.22474 1.26771 3.49247 0.00749908 5.33181 0.000581068C5.93987 -0.00170565 6.54738 0.00016654 7.15419 0.0558653C7.35972 0.0747297 7.4497 0.148261 7.44662 0.360738C7.43808 0.948194 7.43654 1.53594 7.44564 2.12336C7.4491 2.34717 7.34876 2.40724 7.14391 2.40353C6.72921 2.39603 6.31409 2.39837 5.89939 2.40748C5.21567 2.4225 4.86824 2.76667 4.85145 3.45407C4.84003 3.92202 4.85765 4.39071 4.84446 4.85857C4.83832 5.0764 4.91777 5.14969 5.13203 5.1464C5.74038 5.13707 6.34897 5.1417 6.95746 5.14276C7.34784 5.14345 7.34295 5.14492 7.2932 5.5244C7.21107 6.15078 7.12881 6.77735 7.06328 7.40557C7.0386 7.64215 6.95103 7.74515 6.70089 7.73813C6.20343 7.72418 5.70481 7.74732 5.20763 7.7291C4.93452 7.7191 4.84046 7.79766 4.84223 8.08332C4.85392 9.97451 4.84813 11.8658 4.84754 13.7571C4.84741 14.1463 4.84645 14.1469 4.45117 14.1471C3.78736 14.1475 3.12349 14.142 2.45977 14.1496C2.26097 14.1519 2.19332 14.0982 2.19461 13.8832C2.20616 11.9553 2.20215 10.0273 2.20764 8.09941C2.20838 7.83778 2.11809 7.71753 1.8346 7.72751C1.33737 7.74501 0.838926 7.72569 0.341263 7.73553C0.0989519 7.74032 -0.00992653 7.66419 0.000708564 7.40315C0.0182584 6.97239 0.00522608 6.54039 0.00509011 6.08139Z" fill="white"/>
</svg>
