<svg width="26" height="23" viewBox="0 0 26 23" fill="none" xmlns="http://www.w3.org/2000/svg">
<path d="M23.975 3.18087C23.8192 3.07188 23.62 3.04493 23.4453 3.10821C23.3176 3.15392 20.6702 4.11137 19.2968 6.57357C17.942 3.91332 16.5228 1.92341 13.1747 0.0729517C12.9989 -0.0243172 12.7844 -0.0243172 12.6086 0.0729517C9.2804 1.90583 7.89871 3.83128 6.49241 6.57122C5.1283 4.09731 2.46337 3.15275 2.33328 3.10821C2.15398 3.04493 1.96061 3.07423 1.80709 3.18087C0.22032 4.28599 0 11.628 0 11.7007C0 18.0876 1.46021 20.2358 1.52232 20.3237C1.59146 20.4209 1.68756 20.4948 1.79889 20.5369C2.00866 20.6143 6.99048 22.4249 12.8911 22.4249C18.7917 22.4249 23.7723 20.6143 23.9833 20.5369C24.0969 20.4948 24.1954 20.4186 24.2633 20.3178C24.3255 20.2276 25.7821 18.0314 25.7821 11.7007C25.7821 11.628 25.5618 4.28599 23.975 3.18087ZM23.3797 19.5057C22.3988 19.8385 17.9233 21.253 12.8911 21.253C7.85887 21.253 3.37512 19.8361 2.40008 19.5045C2.11062 18.9455 1.17192 16.7435 1.17192 11.7007C1.17192 9.53851 1.7192 5.42626 2.30516 4.36216C3.14073 4.74186 5.21502 5.88682 5.8877 8.14042C5.95802 8.37129 6.16076 8.53653 6.401 8.55645C6.64125 8.57403 6.86977 8.44629 6.97524 8.22948C8.46943 5.16493 9.57221 3.15978 12.8911 1.25776C16.1865 3.15509 17.3361 5.17313 18.8057 8.22597C18.91 8.44394 19.1386 8.57989 19.3776 8.55645C19.6179 8.5377 19.823 8.3748 19.8933 8.14393C20.5753 5.91847 22.6426 4.75475 23.4782 4.36568C24.0653 5.43681 24.6102 9.54203 24.6102 11.7007C24.6102 16.7095 23.668 18.9408 23.3797 19.5057Z" fill="white"/>
</svg>
