<svg width="14" height="14" viewBox="0 0 14 14" fill="none" xmlns="http://www.w3.org/2000/svg">
<path d="M11.7746 13.4483C11.4127 13.4483 11.0838 13.4483 10.7143 13.4483C10.7143 13.3309 10.7143 13.226 10.7143 13.1212C10.7137 11.675 10.7204 10.2287 10.7072 8.78255C10.704 8.43507 10.6665 8.081 10.5892 7.74253C10.4336 7.0606 10.0504 6.75401 9.37151 6.70753C8.61452 6.65569 8.02413 6.93687 7.82289 7.55838C7.67415 8.01777 7.60726 8.5194 7.59679 9.0042C7.56749 10.3622 7.58635 11.7211 7.58622 13.0797C7.5862 13.1981 7.58621 13.3165 7.58621 13.4496C6.64363 13.4496 5.73301 13.4496 4.79877 13.4496C4.79877 10.4735 4.79877 7.49132 4.79877 4.49673C5.68113 4.49673 6.55694 4.49673 7.46417 4.49673C7.46417 4.88257 7.46417 5.25904 7.46417 5.73472C7.96434 4.94762 8.60422 4.50476 9.42177 4.3402C10.2148 4.18057 10.9994 4.23637 11.7534 4.53769C12.7189 4.92351 13.1597 5.71754 13.3522 6.67488C13.4337 7.08068 13.4886 7.49889 13.4919 7.91197C13.5067 9.74135 13.4983 11.5709 13.4983 13.4483C12.9409 13.4483 12.3742 13.4483 11.7746 13.4483Z" fill="black"/>
<path d="M2.39509 4.48409C2.61255 4.48409 2.797 4.48409 2.99762 4.48409C2.99762 7.48203 2.99762 10.4538 2.99762 13.4452C2.07615 13.4452 1.1599 13.4452 0.228683 13.4452C0.228683 10.4678 0.228683 7.49459 0.228683 4.48409C0.94239 4.48409 1.65223 4.48409 2.39509 4.48409Z" fill="black"/>
<path d="M2.73272 2.79524C2.11412 3.29953 1.46728 3.38419 0.855288 3.05483C0.247499 2.72774 -0.0727777 2.08864 0.0140325 1.37613C0.0888349 0.762172 0.559538 0.2341 1.18894 0.0580227C1.87012 -0.132541 2.61231 0.157618 2.99007 0.762176C3.3952 1.41054 3.30854 2.13908 2.73272 2.79524Z" fill="black"/>
</svg>
