<svg width="14" height="15" viewBox="0 0 14 15" fill="none" xmlns="http://www.w3.org/2000/svg">
<path d="M0.74807 14.0724C0.48663 14.0592 0.248746 14.1023 0.0146876 14.0448C-0.00459037 13.9131 0.0959821 13.858 0.157406 13.7868C1.81136 11.8681 3.46442 9.9487 5.12752 8.03794C5.2799 7.86287 5.27329 7.75593 5.14706 7.57405C3.48461 5.17866 1.83047 2.77754 0.17572 0.376856C0.109478 0.280753 0.0228349 0.194092 0 0.0671235C0.0745376 -0.0326862 0.183838 0.00843047 0.276293 0.00818594C1.44987 0.00508249 2.62352 0.0120067 3.79701 0.00119946C4.02794 -0.000927492 4.15903 0.0825412 4.28593 0.268505C5.33178 1.80121 6.38798 3.32691 7.44209 4.85401C7.49336 4.92829 7.55448 4.99583 7.60403 5.05778C7.72481 5.0665 7.76062 4.98022 7.81158 4.92134C9.16408 3.35858 10.5174 1.79648 11.8638 0.228557C12.0014 0.0684014 12.1426 -0.009813 12.3569 0.00192725C12.653 0.0181446 12.9506 0.00599548 13.294 0.00599548C13.1198 0.332099 12.8963 0.536654 12.7033 0.761037C11.3086 2.38323 9.9068 3.99944 8.50724 5.61753C8.2021 5.97032 8.20701 5.96691 8.47074 6.34859C10.1803 8.82279 11.8877 11.2985 13.5949 13.7744C13.6454 13.8477 13.7141 13.9142 13.7153 14.0189C13.6461 14.1018 13.548 14.0699 13.463 14.0701C12.2711 14.0726 11.0791 14.0686 9.88722 14.0755C9.70284 14.0765 9.58686 14.02 9.48103 13.8656C8.36978 12.2448 7.25151 10.6287 6.13396 9.01222C6.06228 8.90853 6.00878 8.78828 5.85711 8.69653C5.5869 9.00657 5.31239 9.31912 5.04051 9.63392C3.80339 11.0663 2.56451 12.4972 1.33335 13.9347C1.16832 14.1273 0.966691 14.0521 0.74807 14.0724ZM7.73735 9.59163C8.34011 10.4525 8.94108 11.3146 9.54654 12.1736C9.77248 12.4941 9.9474 12.9075 10.2575 13.0963C10.5811 13.2932 11.0431 13.1458 11.4444 13.1541C11.6186 13.1577 11.8016 13.1937 11.9905 13.1102C11.9285 13.0169 11.8801 12.9405 11.8282 12.8666C9.20899 9.13378 6.57658 5.41006 3.98469 1.65858C3.61734 1.12687 3.24595 0.869533 2.60825 0.965048C2.32755 1.00709 2.03522 0.972129 1.68434 0.972129C3.72524 3.87844 5.71989 6.71888 7.73735 9.59163Z" fill="white"/>
</svg>
