<svg width="15" height="15" viewBox="0 0 15 15" fill="none" xmlns="http://www.w3.org/2000/svg">
<path d="M9.4515 0.0054488C10.1647 0.0312054 10.8525 -0.0514375 11.5352 0.0608285C13.2181 0.337566 14.4943 1.82754 14.4965 3.52941C14.4996 6.01196 14.5 8.49451 14.4964 10.9771C14.494 12.6174 13.1684 14.1355 11.5333 14.3877C11.347 14.4164 11.1625 14.4417 10.9734 14.4416C8.49918 14.4402 6.02496 14.445 3.55077 14.4396C1.59578 14.4352 0.00349376 12.8385 0.00169555 10.8884C-0.000559187 8.44338 -0.000648359 5.9983 0.00193038 3.55323C0.00399011 1.60038 1.59573 0.0100457 3.55288 0.0064322C5.50967 0.00281952 7.46647 0.00552714 9.4515 0.0054488ZM2.98063 12.8551C3.17949 12.9159 3.38156 12.9456 3.59095 12.9454C6.01818 12.9435 8.44542 12.9486 10.8726 12.9432C12.0945 12.9405 12.9896 12.0471 12.9925 10.8272C12.9983 8.41955 12.9979 6.01186 12.9923 3.60421C12.9895 2.4002 12.0909 1.50671 10.8877 1.50497C8.46046 1.50148 6.03322 1.50178 3.60598 1.50526C2.41766 1.50696 1.50868 2.4011 1.50575 3.58173C1.49972 6.00812 1.5016 8.43454 1.50612 10.8609C1.50784 11.7881 2.05119 12.5276 2.98063 12.8551Z" fill="black"/>
<path d="M6.15794 3.75852C8.16333 3.18392 10.1205 4.24276 10.7091 6.06739C11.425 8.28628 10.0345 10.5367 7.70791 10.8196C5.32268 11.1097 3.62364 9.29875 3.61602 7.29864C3.60954 5.59569 4.56138 4.26605 6.15794 3.75852ZM5.16538 7.69314C5.45544 8.94641 6.68557 9.64067 7.92124 9.24849C9.10818 8.87177 9.71288 7.54417 9.22525 6.3856C8.80564 5.38866 7.70559 4.87352 6.63891 5.17446C5.56882 5.47635 4.96 6.48848 5.16538 7.69314Z" fill="black"/>
<path d="M10.1669 3.35146C10.3854 2.96127 10.7038 2.80584 11.0542 2.89984C11.3875 2.98922 11.6128 3.27962 11.6141 3.62118C11.6153 3.96267 11.3967 4.2505 11.0565 4.34469C10.7782 4.42177 10.5277 4.3487 10.3332 4.14771C10.1245 3.93188 10.0472 3.66904 10.1669 3.35146Z" fill="black"/>
</svg>
