<svg width="135" height="31" viewBox="0 0 135 31" fill="none" xmlns="http://www.w3.org/2000/svg">
<path d="M42.2207 29.4297C40.0332 29.4297 38.1452 28.974 36.5566 28.0625C34.9681 27.138 33.7441 25.8359 32.8848 24.1562C32.0384 22.4766 31.6152 20.4974 31.6152 18.2188C31.6152 15.9661 32.0384 13.9935 32.8848 12.3008C33.7311 10.5951 34.9225 9.26693 36.459 8.31641C37.9954 7.36589 39.8053 6.89062 41.8887 6.89062C43.2298 6.89062 44.4993 7.10547 45.6973 7.53516C46.9082 7.96484 47.9759 8.62891 48.9004 9.52734C49.8379 10.4258 50.5736 11.5716 51.1074 12.9648C51.6413 14.3451 51.9082 15.9922 51.9082 17.9062V19.5078H34.0176V16.0508H49.3496L46.9473 17.0664C46.9473 15.8294 46.7585 14.7552 46.3809 13.8438C46.0033 12.9193 45.4434 12.1966 44.7012 11.6758C43.959 11.1549 43.0345 10.8945 41.9277 10.8945C40.821 10.8945 39.877 11.1549 39.0957 11.6758C38.3145 12.1966 37.722 12.8997 37.3184 13.7852C36.9147 14.6576 36.7129 15.6341 36.7129 16.7148V19.1172C36.7129 20.4453 36.9408 21.5846 37.3965 22.5352C37.8652 23.4727 38.5163 24.1888 39.3496 24.6836C40.196 25.1784 41.179 25.4258 42.2988 25.4258C43.028 25.4258 43.6921 25.3216 44.291 25.1133C44.903 24.9049 45.4238 24.5924 45.8535 24.1758C46.2962 23.7461 46.6348 23.2188 46.8691 22.5938L51.6738 23.1602C51.3613 24.4232 50.7819 25.5299 49.9355 26.4805C49.1022 27.418 48.028 28.1471 46.7129 28.668C45.4108 29.1758 43.9134 29.4297 42.2207 29.4297ZM53.5012 29V7.16406H58.4816V10.8359H58.716C59.1066 9.5599 59.7902 8.58333 60.7668 7.90625C61.7434 7.21615 62.8566 6.87109 64.1066 6.87109C64.3801 6.87109 64.6926 6.88411 65.0441 6.91016C65.4087 6.9362 65.7082 6.96875 65.9426 7.00781V11.7344C65.7212 11.6562 65.3762 11.5911 64.9074 11.5391C64.4387 11.487 63.9895 11.4609 63.5598 11.4609C62.6092 11.4609 61.7629 11.6628 61.0207 12.0664C60.2785 12.4701 59.6926 13.0234 59.2629 13.7266C58.8462 14.4297 58.6379 15.25 58.6379 16.1875V29H53.5012ZM78.727 7.16406V11.1484H66.2074V7.16406H78.727ZM69.2738 1.96875H74.4105V22.4375C74.4105 23.2969 74.5993 23.9349 74.977 24.3516C75.3546 24.7552 75.9535 24.957 76.7738 24.957C76.9952 24.957 77.2426 24.9375 77.516 24.8984C77.7895 24.8594 78.0368 24.8138 78.2582 24.7617L79.1371 28.7852C78.5902 28.9544 78.0368 29.0781 77.477 29.1562C76.9171 29.2474 76.3572 29.293 75.7973 29.293C73.766 29.293 72.171 28.7591 71.0121 27.6914C69.8533 26.6107 69.2738 25.1393 69.2738 23.2773V1.96875ZM89.6363 29.4297C87.5009 29.4297 85.652 28.9609 84.0895 28.0234C82.527 27.0859 81.316 25.7708 80.4566 24.0781C79.6103 22.3854 79.1871 20.4193 79.1871 18.1797C79.1871 15.9271 79.6103 13.9544 80.4566 12.2617C81.316 10.556 82.527 9.23438 84.0895 8.29688C85.652 7.35938 87.5009 6.89062 89.6363 6.89062C91.7717 6.89062 93.6207 7.35938 95.1832 8.29688C96.7457 9.23438 97.9566 10.556 98.816 12.2617C99.6754 13.9544 100.105 15.9271 100.105 18.1797C100.105 20.4193 99.6754 22.3854 98.816 24.0781C97.9566 25.7708 96.7457 27.0859 95.1832 28.0234C93.6207 28.9609 91.7717 29.4297 89.6363 29.4297ZM89.6363 25.2891C90.8212 25.2891 91.7978 24.9766 92.566 24.3516C93.3342 23.7135 93.9072 22.8542 94.2848 21.7734C94.6754 20.6927 94.8707 19.4948 94.8707 18.1797C94.8707 16.8385 94.6754 15.6276 94.2848 14.5469C93.9072 13.4661 93.3342 12.6133 92.566 11.9883C91.7978 11.3503 90.8212 11.0312 89.6363 11.0312C88.4775 11.0312 87.5074 11.3503 86.7262 11.9883C85.9449 12.6133 85.359 13.4661 84.9684 14.5469C84.5908 15.6276 84.402 16.8385 84.402 18.1797C84.402 19.4948 84.5908 20.6927 84.9684 21.7734C85.359 22.8542 85.9449 23.7135 86.7262 24.3516C87.5074 24.9766 88.4775 25.2891 89.6363 25.2891ZM101.737 29V7.16406H106.718V10.8359H106.952C107.343 9.5599 108.026 8.58333 109.003 7.90625C109.979 7.21615 111.093 6.87109 112.343 6.87109C112.616 6.87109 112.929 6.88411 113.28 6.91016C113.645 6.9362 113.944 6.96875 114.179 7.00781V11.7344C113.957 11.6562 113.612 11.5911 113.143 11.5391C112.675 11.487 112.225 11.4609 111.796 11.4609C110.845 11.4609 109.999 11.6628 109.257 12.0664C108.514 12.4701 107.929 13.0234 107.499 13.7266C107.082 14.4297 106.874 15.25 106.874 16.1875V29H101.737ZM120.771 29.4492C119.378 29.4492 118.128 29.2018 117.021 28.707C115.915 28.1992 115.042 27.457 114.404 26.4805C113.766 25.5039 113.447 24.2995 113.447 22.8672C113.447 21.6432 113.675 20.6276 114.131 19.8203C114.587 19.013 115.205 18.3685 115.986 17.8867C116.781 17.4049 117.673 17.0404 118.662 16.793C119.652 16.5326 120.674 16.3503 121.729 16.2461C123.018 16.1029 124.059 15.9792 124.854 15.875C125.648 15.7708 126.221 15.6016 126.572 15.3672C126.937 15.1328 127.119 14.7682 127.119 14.2734V14.1758C127.119 13.1211 126.807 12.3008 126.182 11.7148C125.557 11.1289 124.645 10.8359 123.447 10.8359C122.184 10.8359 121.182 11.1094 120.439 11.6562C119.71 12.2031 119.215 12.8477 118.955 13.5898L114.17 12.9062C114.548 11.5781 115.173 10.4714 116.045 9.58594C116.917 8.6875 117.979 8.01693 119.229 7.57422C120.492 7.11849 121.885 6.89062 123.408 6.89062C124.45 6.89062 125.492 7.01432 126.533 7.26172C127.575 7.49609 128.532 7.89974 129.404 8.47266C130.277 9.04557 130.973 9.8138 131.494 10.7773C132.015 11.7409 132.275 12.9453 132.275 14.3906V29H127.334V25.9922H127.178C126.865 26.5911 126.423 27.1576 125.85 27.6914C125.29 28.2122 124.587 28.6354 123.74 28.9609C122.907 29.2865 121.917 29.4492 120.771 29.4492ZM122.08 25.6602C123.122 25.6602 124.02 25.4583 124.775 25.0547C125.531 24.638 126.117 24.0911 126.533 23.4141C126.95 22.724 127.158 21.9753 127.158 21.168V18.6094C126.989 18.7396 126.715 18.8633 126.338 18.9805C125.96 19.0846 125.531 19.1823 125.049 19.2734C124.567 19.3646 124.092 19.4427 123.623 19.5078C123.167 19.5729 122.77 19.625 122.432 19.6641C121.663 19.7682 120.973 19.944 120.361 20.1914C119.762 20.4258 119.287 20.7513 118.936 21.168C118.584 21.5846 118.408 22.125 118.408 22.7891C118.408 23.7396 118.753 24.4557 119.443 24.9375C120.133 25.4193 121.012 25.6602 122.08 25.6602Z" fill="white"/>
<path d="M11.6125 1.06445H0L16.6078 30.1406L22.6529 20.1869L11.6125 1.06445Z" fill="white"/>
<path d="M33.354 1.06445H20.9297L26.9835 4.52418V12.0985L33.354 1.06445Z" fill="white"/>
</svg>
