<svg width="15" height="15" viewBox="0 0 15 15" fill="none" xmlns="http://www.w3.org/2000/svg">
<path d="M12.3878 14.1487C12.0071 14.1487 11.6611 14.1487 11.2723 14.1487C11.2723 14.0252 11.2723 13.9148 11.2723 13.8045C11.2716 12.283 11.2787 10.7614 11.2648 9.23994C11.2614 8.87436 11.222 8.50185 11.1407 8.14575C10.977 7.42831 10.5738 7.10576 9.85957 7.05685C9.06316 7.00232 8.44202 7.29814 8.2303 7.95201C8.07381 8.43533 8.00344 8.96309 7.99243 9.47314C7.9616 10.9018 7.98145 12.3316 7.9813 13.7609C7.98129 13.8854 7.9813 14.01 7.9813 14.15C6.98963 14.15 6.03159 14.15 5.04869 14.15C5.04869 11.0189 5.04869 7.88146 5.04869 4.73091C5.977 4.73091 6.89842 4.73091 7.8529 4.73091C7.8529 5.13685 7.8529 5.53292 7.8529 6.03338C8.37912 5.20529 9.05232 4.73937 9.91244 4.56623C10.7468 4.39829 11.5722 4.457 12.3655 4.77401C13.3813 5.17993 13.8451 6.01531 14.0475 7.0225C14.1334 7.44944 14.1911 7.88943 14.1946 8.32402C14.2101 10.2487 14.2013 12.1735 14.2013 14.1487C13.6148 14.1487 13.0187 14.1487 12.3878 14.1487Z" fill="black"/>
<path d="M2.51982 4.71762C2.74861 4.71762 2.94267 4.71762 3.15373 4.71762C3.15373 7.87169 3.15373 10.9982 3.15373 14.1454C2.18427 14.1454 1.2203 14.1454 0.240593 14.1454C0.240593 11.013 0.240593 7.88491 0.240593 4.71762C0.991469 4.71762 1.73828 4.71762 2.51982 4.71762Z" fill="black"/>
<path d="M2.87504 2.94081C2.22422 3.47137 1.5437 3.56043 0.899831 3.21392C0.260389 2.8698 -0.0765679 2.19741 0.0147633 1.44779C0.0934613 0.801866 0.588678 0.246292 1.25086 0.0610445C1.96751 -0.139443 2.74835 0.165827 3.14579 0.80187C3.57202 1.48401 3.48085 2.25049 2.87504 2.94081Z" fill="black"/>
</svg>
