<svg width="8" height="15" viewBox="0 0 8 15" fill="none" xmlns="http://www.w3.org/2000/svg">
<path d="M0.0053552 6.39811C0.00557289 6.15665 0.0172362 5.94338 0.00295572 5.73186C-0.013145 5.49336 0.0812556 5.40278 0.320968 5.40733C0.863959 5.41764 1.40775 5.39743 1.95027 5.41635C2.22492 5.42592 2.31556 5.30537 2.3166 5.06194C2.31914 4.46312 2.32172 3.86429 2.32619 3.26549C2.3406 1.33373 3.67436 0.00788962 5.60949 0.000611329C6.24922 -0.00179448 6.88836 0.000175213 7.52678 0.0587747C7.74301 0.0786215 7.83768 0.155982 7.83443 0.379525C7.82545 0.997575 7.82383 1.61593 7.8334 2.23395C7.83705 2.46941 7.73147 2.5326 7.51595 2.5287C7.07966 2.52081 6.64292 2.52327 6.20662 2.53286C5.4873 2.54866 5.12177 2.91075 5.10411 3.63395C5.09209 4.12628 5.11064 4.61937 5.09676 5.1116C5.0903 5.34078 5.17389 5.41788 5.3993 5.41442C6.03934 5.4046 6.67962 5.40947 7.3198 5.4106C7.73051 5.41132 7.72537 5.41286 7.67302 5.81211C7.58662 6.47111 7.50007 7.13031 7.43113 7.79125C7.40517 8.04014 7.31304 8.14851 7.04987 8.14113C6.5265 8.12644 6.00191 8.15079 5.47884 8.13163C5.19151 8.1211 5.09255 8.20376 5.09441 8.5043C5.10671 10.494 5.10062 12.4838 5.09999 14.4735C5.09986 14.883 5.09885 14.8837 4.68298 14.8839C3.9846 14.8843 3.28616 14.8785 2.58787 14.8865C2.37872 14.889 2.30755 14.8324 2.3089 14.6062C2.32105 12.5779 2.31683 10.5496 2.32261 8.52123C2.32339 8.24597 2.2284 8.11946 1.93015 8.12995C1.40701 8.14836 0.882616 8.12804 0.359036 8.13839C0.104105 8.14343 -0.0104435 8.06334 0.000745465 7.7887C0.0192093 7.3355 0.00549825 6.88101 0.0053552 6.39811Z" fill="black"/>
</svg>
