<svg width="15" height="15" viewBox="0 0 15 15" fill="none" xmlns="http://www.w3.org/2000/svg">
<path d="M0.787029 14.8053C0.511973 14.7914 0.2617 14.8368 0.0154525 14.7763C-0.00482943 14.6377 0.100981 14.5797 0.165604 14.5048C1.9057 12.4862 3.64485 10.4668 5.39455 8.45655C5.55487 8.27236 5.54792 8.15986 5.41511 7.9685C3.66609 5.44836 1.9258 2.9222 0.184872 0.396482C0.11518 0.295375 0.0240242 0.204201 0 0.0706192C0.0784194 -0.0343885 0.193412 0.00886953 0.290682 0.00861226C1.52538 0.00534718 2.76015 0.012632 3.99476 0.00126193C4.23771 -0.000975795 4.37563 0.0868398 4.50914 0.282488C5.60945 1.89501 6.72066 3.50017 7.82967 5.1068C7.88361 5.18495 7.94791 5.25601 8.00004 5.32118C8.12712 5.33036 8.16479 5.23959 8.2184 5.17764C9.64134 3.5335 11.0651 1.89004 12.4817 0.24046C12.6264 0.0719637 12.775 -0.0103241 13.0005 0.00202762C13.312 0.0190896 13.6251 0.00630772 13.9864 0.00630772C13.8031 0.349395 13.5679 0.564603 13.3649 0.800671C11.8975 2.50735 10.4227 4.20773 8.95029 5.91009C8.62926 6.28125 8.63443 6.27766 8.91189 6.67922C10.7105 9.28228 12.5069 11.8869 14.3029 14.4917C14.356 14.5688 14.4284 14.6389 14.4296 14.749C14.3567 14.8362 14.2536 14.8026 14.1641 14.8028C12.9101 14.8055 11.6561 14.8012 10.4021 14.8085C10.2082 14.8096 10.0861 14.7501 9.97479 14.5877C8.80567 12.8825 7.62916 11.1823 6.45341 9.48157C6.378 9.37248 6.32172 9.24597 6.16214 9.14944C5.87786 9.47563 5.58905 9.80446 5.30301 10.1357C4.00147 11.6426 2.69806 13.1481 1.40279 14.6604C1.22917 14.8631 1.01704 14.7839 0.787029 14.8053ZM8.14031 10.0912C8.77445 10.9969 9.40672 11.9039 10.0437 12.8076C10.2814 13.1448 10.4655 13.5798 10.7917 13.7783C11.1322 13.9855 11.6182 13.8304 12.0404 13.8392C12.2237 13.843 12.4162 13.8808 12.615 13.7929C12.5497 13.6948 12.4988 13.6144 12.4442 13.5366C9.68859 9.60946 6.91909 5.69181 4.19221 1.74495C3.80573 1.18556 3.415 0.914818 2.74408 1.01531C2.44877 1.05954 2.14121 1.02276 1.77205 1.02276C3.91925 4.08043 6.01778 7.0688 8.14031 10.0912Z" fill="black"/>
</svg>
