<svg width="16" height="16" viewBox="0 0 16 16" fill="none" xmlns="http://www.w3.org/2000/svg">
<path d="M9.94373 0.00573257C10.6941 0.0328306 11.4176 -0.0541163 12.1359 0.0639964C13.9065 0.355147 15.2492 1.92272 15.2514 3.71322C15.2547 6.32505 15.2551 8.9369 15.2514 11.5487C15.2489 13.2745 13.8542 14.8717 12.1339 15.137C11.938 15.1672 11.7438 15.1938 11.5449 15.1937C8.94181 15.1922 6.33874 15.1973 3.73569 15.1916C1.67889 15.187 0.00367571 13.5071 0.00178386 11.4555C-0.000588309 8.8831 -0.000682125 6.31069 0.00203091 3.73828C0.00419791 1.68373 1.67884 0.0105689 3.73792 0.00676718C5.79661 0.00296636 7.85532 0.00581499 9.94373 0.00573257ZM3.13585 13.5246C3.34508 13.5885 3.55767 13.6198 3.77796 13.6196C6.3316 13.6176 8.88526 13.623 11.4389 13.6173C12.7244 13.6144 13.6661 12.6746 13.6692 11.3911C13.6752 8.85803 13.6748 6.32495 13.669 3.79191C13.666 2.5252 12.7206 1.58517 11.4547 1.58335C8.90107 1.57968 6.34742 1.57999 3.79378 1.58365C2.54357 1.58544 1.58725 2.52615 1.58417 3.76826C1.57782 6.32102 1.5798 8.8738 1.58455 11.4266C1.58637 12.402 2.15801 13.18 3.13585 13.5246Z" fill="black"/>
<path d="M6.47865 3.95426C8.58847 3.34974 10.6475 4.46372 11.2669 6.38338C12.02 8.71782 10.5571 11.0855 8.10933 11.3831C5.59988 11.6883 3.81235 9.78302 3.80434 7.67875C3.79752 5.88711 4.79893 4.48822 6.47865 3.95426ZM5.43439 8.0938C5.73956 9.41234 7.03375 10.1427 8.33377 9.73014C9.58253 9.33381 10.2187 7.93706 9.70569 6.71816C9.26423 5.66929 8.10689 5.12733 6.98466 5.44394C5.85884 5.76156 5.21832 6.82639 5.43439 8.0938Z" fill="black"/>
<path d="M10.6964 3.526C10.9263 3.11549 11.2613 2.95197 11.6299 3.05086C11.9805 3.1449 12.2176 3.45042 12.2189 3.80977C12.2203 4.16904 11.9902 4.47187 11.6323 4.57096C11.3395 4.65205 11.076 4.57517 10.8714 4.36372C10.6517 4.13665 10.5705 3.86012 10.6964 3.526Z" fill="black"/>
</svg>
